%TF.GenerationSoftware,KiCad,Pcbnew,8.0.8*%
%TF.CreationDate,2025-07-13T21:22:02+01:00*%
%TF.ProjectId,FlightPad,466c6967-6874-4506-9164-2e6b69636164,rev?*%
%TF.SameCoordinates,Original*%
%TF.FileFunction,Legend,Top*%
%TF.FilePolarity,Positive*%
%FSLAX46Y46*%
G04 Gerber Fmt 4.6, Leading zero omitted, Abs format (unit mm)*
G04 Created by KiCad (PCBNEW 8.0.8) date 2025-07-13 21:22:02*
%MOMM*%
%LPD*%
G01*
G04 APERTURE LIST*
%ADD10C,0.100000*%
%ADD11C,0.150000*%
%ADD12C,0.101600*%
%ADD13C,0.120000*%
%ADD14C,0.040000*%
%ADD15C,0.127000*%
%ADD16C,0.504000*%
G04 APERTURE END LIST*
D10*
X56500000Y-59000000D02*
X116000000Y-59000000D01*
X116000000Y-119000000D01*
X56500000Y-119000000D01*
X56500000Y-59000000D01*
X70500000Y-120000000D02*
X105000000Y-120000000D01*
X105000000Y-124000000D01*
X70500000Y-124000000D01*
X70500000Y-120000000D01*
X81303884Y-58372419D02*
X81303884Y-57372419D01*
X81875312Y-58372419D02*
X81446741Y-57800990D01*
X81875312Y-57372419D02*
X81303884Y-57943847D01*
X82684836Y-58324800D02*
X82589598Y-58372419D01*
X82589598Y-58372419D02*
X82399122Y-58372419D01*
X82399122Y-58372419D02*
X82303884Y-58324800D01*
X82303884Y-58324800D02*
X82256265Y-58229561D01*
X82256265Y-58229561D02*
X82256265Y-57848609D01*
X82256265Y-57848609D02*
X82303884Y-57753371D01*
X82303884Y-57753371D02*
X82399122Y-57705752D01*
X82399122Y-57705752D02*
X82589598Y-57705752D01*
X82589598Y-57705752D02*
X82684836Y-57753371D01*
X82684836Y-57753371D02*
X82732455Y-57848609D01*
X82732455Y-57848609D02*
X82732455Y-57943847D01*
X82732455Y-57943847D02*
X82256265Y-58039085D01*
X83065789Y-57705752D02*
X83303884Y-58372419D01*
X83541979Y-57705752D02*
X83303884Y-58372419D01*
X83303884Y-58372419D02*
X83208646Y-58610514D01*
X83208646Y-58610514D02*
X83161027Y-58658133D01*
X83161027Y-58658133D02*
X83065789Y-58705752D01*
X84684837Y-58372419D02*
X84684837Y-57372419D01*
X84684837Y-57372419D02*
X85018170Y-58086704D01*
X85018170Y-58086704D02*
X85351503Y-57372419D01*
X85351503Y-57372419D02*
X85351503Y-58372419D01*
X86256265Y-58372419D02*
X86256265Y-57848609D01*
X86256265Y-57848609D02*
X86208646Y-57753371D01*
X86208646Y-57753371D02*
X86113408Y-57705752D01*
X86113408Y-57705752D02*
X85922932Y-57705752D01*
X85922932Y-57705752D02*
X85827694Y-57753371D01*
X86256265Y-58324800D02*
X86161027Y-58372419D01*
X86161027Y-58372419D02*
X85922932Y-58372419D01*
X85922932Y-58372419D02*
X85827694Y-58324800D01*
X85827694Y-58324800D02*
X85780075Y-58229561D01*
X85780075Y-58229561D02*
X85780075Y-58134323D01*
X85780075Y-58134323D02*
X85827694Y-58039085D01*
X85827694Y-58039085D02*
X85922932Y-57991466D01*
X85922932Y-57991466D02*
X86161027Y-57991466D01*
X86161027Y-57991466D02*
X86256265Y-57943847D01*
X86589599Y-57705752D02*
X86970551Y-57705752D01*
X86732456Y-57372419D02*
X86732456Y-58229561D01*
X86732456Y-58229561D02*
X86780075Y-58324800D01*
X86780075Y-58324800D02*
X86875313Y-58372419D01*
X86875313Y-58372419D02*
X86970551Y-58372419D01*
X87303885Y-58372419D02*
X87303885Y-57705752D01*
X87303885Y-57896228D02*
X87351504Y-57800990D01*
X87351504Y-57800990D02*
X87399123Y-57753371D01*
X87399123Y-57753371D02*
X87494361Y-57705752D01*
X87494361Y-57705752D02*
X87589599Y-57705752D01*
X87922933Y-58372419D02*
X87922933Y-57705752D01*
X87922933Y-57372419D02*
X87875314Y-57420038D01*
X87875314Y-57420038D02*
X87922933Y-57467657D01*
X87922933Y-57467657D02*
X87970552Y-57420038D01*
X87970552Y-57420038D02*
X87922933Y-57372419D01*
X87922933Y-57372419D02*
X87922933Y-57467657D01*
X88303885Y-58372419D02*
X88827694Y-57705752D01*
X88303885Y-57705752D02*
X88827694Y-58372419D01*
X68161027Y-37372419D02*
X68732455Y-37372419D01*
X68446741Y-38372419D02*
X68446741Y-37372419D01*
X69065789Y-38372419D02*
X69065789Y-37372419D01*
X69494360Y-38372419D02*
X69494360Y-37848609D01*
X69494360Y-37848609D02*
X69446741Y-37753371D01*
X69446741Y-37753371D02*
X69351503Y-37705752D01*
X69351503Y-37705752D02*
X69208646Y-37705752D01*
X69208646Y-37705752D02*
X69113408Y-37753371D01*
X69113408Y-37753371D02*
X69065789Y-37800990D01*
X69970551Y-38372419D02*
X69970551Y-37705752D01*
X69970551Y-37372419D02*
X69922932Y-37420038D01*
X69922932Y-37420038D02*
X69970551Y-37467657D01*
X69970551Y-37467657D02*
X70018170Y-37420038D01*
X70018170Y-37420038D02*
X69970551Y-37372419D01*
X69970551Y-37372419D02*
X69970551Y-37467657D01*
X70446741Y-38372419D02*
X70446741Y-37705752D01*
X70446741Y-37896228D02*
X70494360Y-37800990D01*
X70494360Y-37800990D02*
X70541979Y-37753371D01*
X70541979Y-37753371D02*
X70637217Y-37705752D01*
X70637217Y-37705752D02*
X70732455Y-37705752D01*
X71494360Y-38372419D02*
X71494360Y-37372419D01*
X71494360Y-38324800D02*
X71399122Y-38372419D01*
X71399122Y-38372419D02*
X71208646Y-38372419D01*
X71208646Y-38372419D02*
X71113408Y-38324800D01*
X71113408Y-38324800D02*
X71065789Y-38277180D01*
X71065789Y-38277180D02*
X71018170Y-38181942D01*
X71018170Y-38181942D02*
X71018170Y-37896228D01*
X71018170Y-37896228D02*
X71065789Y-37800990D01*
X71065789Y-37800990D02*
X71113408Y-37753371D01*
X71113408Y-37753371D02*
X71208646Y-37705752D01*
X71208646Y-37705752D02*
X71399122Y-37705752D01*
X71399122Y-37705752D02*
X71494360Y-37753371D01*
X72684837Y-38324800D02*
X72827694Y-38372419D01*
X72827694Y-38372419D02*
X73065789Y-38372419D01*
X73065789Y-38372419D02*
X73161027Y-38324800D01*
X73161027Y-38324800D02*
X73208646Y-38277180D01*
X73208646Y-38277180D02*
X73256265Y-38181942D01*
X73256265Y-38181942D02*
X73256265Y-38086704D01*
X73256265Y-38086704D02*
X73208646Y-37991466D01*
X73208646Y-37991466D02*
X73161027Y-37943847D01*
X73161027Y-37943847D02*
X73065789Y-37896228D01*
X73065789Y-37896228D02*
X72875313Y-37848609D01*
X72875313Y-37848609D02*
X72780075Y-37800990D01*
X72780075Y-37800990D02*
X72732456Y-37753371D01*
X72732456Y-37753371D02*
X72684837Y-37658133D01*
X72684837Y-37658133D02*
X72684837Y-37562895D01*
X72684837Y-37562895D02*
X72732456Y-37467657D01*
X72732456Y-37467657D02*
X72780075Y-37420038D01*
X72780075Y-37420038D02*
X72875313Y-37372419D01*
X72875313Y-37372419D02*
X73113408Y-37372419D01*
X73113408Y-37372419D02*
X73256265Y-37420038D01*
X74113408Y-38324800D02*
X74018170Y-38372419D01*
X74018170Y-38372419D02*
X73827694Y-38372419D01*
X73827694Y-38372419D02*
X73732456Y-38324800D01*
X73732456Y-38324800D02*
X73684837Y-38277180D01*
X73684837Y-38277180D02*
X73637218Y-38181942D01*
X73637218Y-38181942D02*
X73637218Y-37896228D01*
X73637218Y-37896228D02*
X73684837Y-37800990D01*
X73684837Y-37800990D02*
X73732456Y-37753371D01*
X73732456Y-37753371D02*
X73827694Y-37705752D01*
X73827694Y-37705752D02*
X74018170Y-37705752D01*
X74018170Y-37705752D02*
X74113408Y-37753371D01*
X74541980Y-38372419D02*
X74541980Y-37705752D01*
X74541980Y-37896228D02*
X74589599Y-37800990D01*
X74589599Y-37800990D02*
X74637218Y-37753371D01*
X74637218Y-37753371D02*
X74732456Y-37705752D01*
X74732456Y-37705752D02*
X74827694Y-37705752D01*
X75541980Y-38324800D02*
X75446742Y-38372419D01*
X75446742Y-38372419D02*
X75256266Y-38372419D01*
X75256266Y-38372419D02*
X75161028Y-38324800D01*
X75161028Y-38324800D02*
X75113409Y-38229561D01*
X75113409Y-38229561D02*
X75113409Y-37848609D01*
X75113409Y-37848609D02*
X75161028Y-37753371D01*
X75161028Y-37753371D02*
X75256266Y-37705752D01*
X75256266Y-37705752D02*
X75446742Y-37705752D01*
X75446742Y-37705752D02*
X75541980Y-37753371D01*
X75541980Y-37753371D02*
X75589599Y-37848609D01*
X75589599Y-37848609D02*
X75589599Y-37943847D01*
X75589599Y-37943847D02*
X75113409Y-38039085D01*
X75922933Y-37705752D02*
X76113409Y-38372419D01*
X76113409Y-38372419D02*
X76303885Y-37896228D01*
X76303885Y-37896228D02*
X76494361Y-38372419D01*
X76494361Y-38372419D02*
X76684837Y-37705752D01*
X77827695Y-38372419D02*
X77827695Y-37372419D01*
X77827695Y-37848609D02*
X78399123Y-37848609D01*
X78399123Y-38372419D02*
X78399123Y-37372419D01*
X79018171Y-38372419D02*
X78922933Y-38324800D01*
X78922933Y-38324800D02*
X78875314Y-38277180D01*
X78875314Y-38277180D02*
X78827695Y-38181942D01*
X78827695Y-38181942D02*
X78827695Y-37896228D01*
X78827695Y-37896228D02*
X78875314Y-37800990D01*
X78875314Y-37800990D02*
X78922933Y-37753371D01*
X78922933Y-37753371D02*
X79018171Y-37705752D01*
X79018171Y-37705752D02*
X79161028Y-37705752D01*
X79161028Y-37705752D02*
X79256266Y-37753371D01*
X79256266Y-37753371D02*
X79303885Y-37800990D01*
X79303885Y-37800990D02*
X79351504Y-37896228D01*
X79351504Y-37896228D02*
X79351504Y-38181942D01*
X79351504Y-38181942D02*
X79303885Y-38277180D01*
X79303885Y-38277180D02*
X79256266Y-38324800D01*
X79256266Y-38324800D02*
X79161028Y-38372419D01*
X79161028Y-38372419D02*
X79018171Y-38372419D01*
X79922933Y-38372419D02*
X79827695Y-38324800D01*
X79827695Y-38324800D02*
X79780076Y-38229561D01*
X79780076Y-38229561D02*
X79780076Y-37372419D01*
X80684838Y-38324800D02*
X80589600Y-38372419D01*
X80589600Y-38372419D02*
X80399124Y-38372419D01*
X80399124Y-38372419D02*
X80303886Y-38324800D01*
X80303886Y-38324800D02*
X80256267Y-38229561D01*
X80256267Y-38229561D02*
X80256267Y-37848609D01*
X80256267Y-37848609D02*
X80303886Y-37753371D01*
X80303886Y-37753371D02*
X80399124Y-37705752D01*
X80399124Y-37705752D02*
X80589600Y-37705752D01*
X80589600Y-37705752D02*
X80684838Y-37753371D01*
X80684838Y-37753371D02*
X80732457Y-37848609D01*
X80732457Y-37848609D02*
X80732457Y-37943847D01*
X80732457Y-37943847D02*
X80256267Y-38039085D01*
X81780077Y-37705752D02*
X82161029Y-37705752D01*
X81922934Y-38372419D02*
X81922934Y-37515276D01*
X81922934Y-37515276D02*
X81970553Y-37420038D01*
X81970553Y-37420038D02*
X82065791Y-37372419D01*
X82065791Y-37372419D02*
X82161029Y-37372419D01*
X82637220Y-38372419D02*
X82541982Y-38324800D01*
X82541982Y-38324800D02*
X82494363Y-38277180D01*
X82494363Y-38277180D02*
X82446744Y-38181942D01*
X82446744Y-38181942D02*
X82446744Y-37896228D01*
X82446744Y-37896228D02*
X82494363Y-37800990D01*
X82494363Y-37800990D02*
X82541982Y-37753371D01*
X82541982Y-37753371D02*
X82637220Y-37705752D01*
X82637220Y-37705752D02*
X82780077Y-37705752D01*
X82780077Y-37705752D02*
X82875315Y-37753371D01*
X82875315Y-37753371D02*
X82922934Y-37800990D01*
X82922934Y-37800990D02*
X82970553Y-37896228D01*
X82970553Y-37896228D02*
X82970553Y-38181942D01*
X82970553Y-38181942D02*
X82922934Y-38277180D01*
X82922934Y-38277180D02*
X82875315Y-38324800D01*
X82875315Y-38324800D02*
X82780077Y-38372419D01*
X82780077Y-38372419D02*
X82637220Y-38372419D01*
X83399125Y-38372419D02*
X83399125Y-37705752D01*
X83399125Y-37896228D02*
X83446744Y-37800990D01*
X83446744Y-37800990D02*
X83494363Y-37753371D01*
X83494363Y-37753371D02*
X83589601Y-37705752D01*
X83589601Y-37705752D02*
X83684839Y-37705752D01*
X84970554Y-37372419D02*
X85161030Y-37372419D01*
X85161030Y-37372419D02*
X85256268Y-37420038D01*
X85256268Y-37420038D02*
X85351506Y-37515276D01*
X85351506Y-37515276D02*
X85399125Y-37705752D01*
X85399125Y-37705752D02*
X85399125Y-38039085D01*
X85399125Y-38039085D02*
X85351506Y-38229561D01*
X85351506Y-38229561D02*
X85256268Y-38324800D01*
X85256268Y-38324800D02*
X85161030Y-38372419D01*
X85161030Y-38372419D02*
X84970554Y-38372419D01*
X84970554Y-38372419D02*
X84875316Y-38324800D01*
X84875316Y-38324800D02*
X84780078Y-38229561D01*
X84780078Y-38229561D02*
X84732459Y-38039085D01*
X84732459Y-38039085D02*
X84732459Y-37705752D01*
X84732459Y-37705752D02*
X84780078Y-37515276D01*
X84780078Y-37515276D02*
X84875316Y-37420038D01*
X84875316Y-37420038D02*
X84970554Y-37372419D01*
X85827697Y-37705752D02*
X85827697Y-38705752D01*
X85827697Y-37753371D02*
X85922935Y-37705752D01*
X85922935Y-37705752D02*
X86113411Y-37705752D01*
X86113411Y-37705752D02*
X86208649Y-37753371D01*
X86208649Y-37753371D02*
X86256268Y-37800990D01*
X86256268Y-37800990D02*
X86303887Y-37896228D01*
X86303887Y-37896228D02*
X86303887Y-38181942D01*
X86303887Y-38181942D02*
X86256268Y-38277180D01*
X86256268Y-38277180D02*
X86208649Y-38324800D01*
X86208649Y-38324800D02*
X86113411Y-38372419D01*
X86113411Y-38372419D02*
X85922935Y-38372419D01*
X85922935Y-38372419D02*
X85827697Y-38324800D01*
X87113411Y-38324800D02*
X87018173Y-38372419D01*
X87018173Y-38372419D02*
X86827697Y-38372419D01*
X86827697Y-38372419D02*
X86732459Y-38324800D01*
X86732459Y-38324800D02*
X86684840Y-38229561D01*
X86684840Y-38229561D02*
X86684840Y-37848609D01*
X86684840Y-37848609D02*
X86732459Y-37753371D01*
X86732459Y-37753371D02*
X86827697Y-37705752D01*
X86827697Y-37705752D02*
X87018173Y-37705752D01*
X87018173Y-37705752D02*
X87113411Y-37753371D01*
X87113411Y-37753371D02*
X87161030Y-37848609D01*
X87161030Y-37848609D02*
X87161030Y-37943847D01*
X87161030Y-37943847D02*
X86684840Y-38039085D01*
X87589602Y-37705752D02*
X87589602Y-38372419D01*
X87589602Y-37800990D02*
X87637221Y-37753371D01*
X87637221Y-37753371D02*
X87732459Y-37705752D01*
X87732459Y-37705752D02*
X87875316Y-37705752D01*
X87875316Y-37705752D02*
X87970554Y-37753371D01*
X87970554Y-37753371D02*
X88018173Y-37848609D01*
X88018173Y-37848609D02*
X88018173Y-38372419D01*
X89113412Y-37372419D02*
X89684840Y-37372419D01*
X89399126Y-38372419D02*
X89399126Y-37372419D01*
X90161031Y-38372419D02*
X90065793Y-38324800D01*
X90065793Y-38324800D02*
X90018174Y-38277180D01*
X90018174Y-38277180D02*
X89970555Y-38181942D01*
X89970555Y-38181942D02*
X89970555Y-37896228D01*
X89970555Y-37896228D02*
X90018174Y-37800990D01*
X90018174Y-37800990D02*
X90065793Y-37753371D01*
X90065793Y-37753371D02*
X90161031Y-37705752D01*
X90161031Y-37705752D02*
X90303888Y-37705752D01*
X90303888Y-37705752D02*
X90399126Y-37753371D01*
X90399126Y-37753371D02*
X90446745Y-37800990D01*
X90446745Y-37800990D02*
X90494364Y-37896228D01*
X90494364Y-37896228D02*
X90494364Y-38181942D01*
X90494364Y-38181942D02*
X90446745Y-38277180D01*
X90446745Y-38277180D02*
X90399126Y-38324800D01*
X90399126Y-38324800D02*
X90303888Y-38372419D01*
X90303888Y-38372419D02*
X90161031Y-38372419D01*
X90922936Y-37705752D02*
X90922936Y-38705752D01*
X90922936Y-37753371D02*
X91018174Y-37705752D01*
X91018174Y-37705752D02*
X91208650Y-37705752D01*
X91208650Y-37705752D02*
X91303888Y-37753371D01*
X91303888Y-37753371D02*
X91351507Y-37800990D01*
X91351507Y-37800990D02*
X91399126Y-37896228D01*
X91399126Y-37896228D02*
X91399126Y-38181942D01*
X91399126Y-38181942D02*
X91351507Y-38277180D01*
X91351507Y-38277180D02*
X91303888Y-38324800D01*
X91303888Y-38324800D02*
X91208650Y-38372419D01*
X91208650Y-38372419D02*
X91018174Y-38372419D01*
X91018174Y-38372419D02*
X90922936Y-38324800D01*
X92589603Y-38372419D02*
X92589603Y-37372419D01*
X92589603Y-37372419D02*
X92827698Y-37372419D01*
X92827698Y-37372419D02*
X92970555Y-37420038D01*
X92970555Y-37420038D02*
X93065793Y-37515276D01*
X93065793Y-37515276D02*
X93113412Y-37610514D01*
X93113412Y-37610514D02*
X93161031Y-37800990D01*
X93161031Y-37800990D02*
X93161031Y-37943847D01*
X93161031Y-37943847D02*
X93113412Y-38134323D01*
X93113412Y-38134323D02*
X93065793Y-38229561D01*
X93065793Y-38229561D02*
X92970555Y-38324800D01*
X92970555Y-38324800D02*
X92827698Y-38372419D01*
X92827698Y-38372419D02*
X92589603Y-38372419D01*
X93970555Y-38324800D02*
X93875317Y-38372419D01*
X93875317Y-38372419D02*
X93684841Y-38372419D01*
X93684841Y-38372419D02*
X93589603Y-38324800D01*
X93589603Y-38324800D02*
X93541984Y-38229561D01*
X93541984Y-38229561D02*
X93541984Y-37848609D01*
X93541984Y-37848609D02*
X93589603Y-37753371D01*
X93589603Y-37753371D02*
X93684841Y-37705752D01*
X93684841Y-37705752D02*
X93875317Y-37705752D01*
X93875317Y-37705752D02*
X93970555Y-37753371D01*
X93970555Y-37753371D02*
X94018174Y-37848609D01*
X94018174Y-37848609D02*
X94018174Y-37943847D01*
X94018174Y-37943847D02*
X93541984Y-38039085D01*
X94399127Y-38324800D02*
X94494365Y-38372419D01*
X94494365Y-38372419D02*
X94684841Y-38372419D01*
X94684841Y-38372419D02*
X94780079Y-38324800D01*
X94780079Y-38324800D02*
X94827698Y-38229561D01*
X94827698Y-38229561D02*
X94827698Y-38181942D01*
X94827698Y-38181942D02*
X94780079Y-38086704D01*
X94780079Y-38086704D02*
X94684841Y-38039085D01*
X94684841Y-38039085D02*
X94541984Y-38039085D01*
X94541984Y-38039085D02*
X94446746Y-37991466D01*
X94446746Y-37991466D02*
X94399127Y-37896228D01*
X94399127Y-37896228D02*
X94399127Y-37848609D01*
X94399127Y-37848609D02*
X94446746Y-37753371D01*
X94446746Y-37753371D02*
X94541984Y-37705752D01*
X94541984Y-37705752D02*
X94684841Y-37705752D01*
X94684841Y-37705752D02*
X94780079Y-37753371D01*
X95256270Y-38372419D02*
X95256270Y-37705752D01*
X95256270Y-37372419D02*
X95208651Y-37420038D01*
X95208651Y-37420038D02*
X95256270Y-37467657D01*
X95256270Y-37467657D02*
X95303889Y-37420038D01*
X95303889Y-37420038D02*
X95256270Y-37372419D01*
X95256270Y-37372419D02*
X95256270Y-37467657D01*
X96161031Y-37705752D02*
X96161031Y-38515276D01*
X96161031Y-38515276D02*
X96113412Y-38610514D01*
X96113412Y-38610514D02*
X96065793Y-38658133D01*
X96065793Y-38658133D02*
X95970555Y-38705752D01*
X95970555Y-38705752D02*
X95827698Y-38705752D01*
X95827698Y-38705752D02*
X95732460Y-38658133D01*
X96161031Y-38324800D02*
X96065793Y-38372419D01*
X96065793Y-38372419D02*
X95875317Y-38372419D01*
X95875317Y-38372419D02*
X95780079Y-38324800D01*
X95780079Y-38324800D02*
X95732460Y-38277180D01*
X95732460Y-38277180D02*
X95684841Y-38181942D01*
X95684841Y-38181942D02*
X95684841Y-37896228D01*
X95684841Y-37896228D02*
X95732460Y-37800990D01*
X95732460Y-37800990D02*
X95780079Y-37753371D01*
X95780079Y-37753371D02*
X95875317Y-37705752D01*
X95875317Y-37705752D02*
X96065793Y-37705752D01*
X96065793Y-37705752D02*
X96161031Y-37753371D01*
X96637222Y-37705752D02*
X96637222Y-38372419D01*
X96637222Y-37800990D02*
X96684841Y-37753371D01*
X96684841Y-37753371D02*
X96780079Y-37705752D01*
X96780079Y-37705752D02*
X96922936Y-37705752D01*
X96922936Y-37705752D02*
X97018174Y-37753371D01*
X97018174Y-37753371D02*
X97065793Y-37848609D01*
X97065793Y-37848609D02*
X97065793Y-38372419D01*
X72303884Y-122372419D02*
X72303884Y-121372419D01*
X72303884Y-121372419D02*
X72541979Y-121372419D01*
X72541979Y-121372419D02*
X72684836Y-121420038D01*
X72684836Y-121420038D02*
X72780074Y-121515276D01*
X72780074Y-121515276D02*
X72827693Y-121610514D01*
X72827693Y-121610514D02*
X72875312Y-121800990D01*
X72875312Y-121800990D02*
X72875312Y-121943847D01*
X72875312Y-121943847D02*
X72827693Y-122134323D01*
X72827693Y-122134323D02*
X72780074Y-122229561D01*
X72780074Y-122229561D02*
X72684836Y-122324800D01*
X72684836Y-122324800D02*
X72541979Y-122372419D01*
X72541979Y-122372419D02*
X72303884Y-122372419D01*
X73684836Y-122324800D02*
X73589598Y-122372419D01*
X73589598Y-122372419D02*
X73399122Y-122372419D01*
X73399122Y-122372419D02*
X73303884Y-122324800D01*
X73303884Y-122324800D02*
X73256265Y-122229561D01*
X73256265Y-122229561D02*
X73256265Y-121848609D01*
X73256265Y-121848609D02*
X73303884Y-121753371D01*
X73303884Y-121753371D02*
X73399122Y-121705752D01*
X73399122Y-121705752D02*
X73589598Y-121705752D01*
X73589598Y-121705752D02*
X73684836Y-121753371D01*
X73684836Y-121753371D02*
X73732455Y-121848609D01*
X73732455Y-121848609D02*
X73732455Y-121943847D01*
X73732455Y-121943847D02*
X73256265Y-122039085D01*
X74113408Y-122324800D02*
X74208646Y-122372419D01*
X74208646Y-122372419D02*
X74399122Y-122372419D01*
X74399122Y-122372419D02*
X74494360Y-122324800D01*
X74494360Y-122324800D02*
X74541979Y-122229561D01*
X74541979Y-122229561D02*
X74541979Y-122181942D01*
X74541979Y-122181942D02*
X74494360Y-122086704D01*
X74494360Y-122086704D02*
X74399122Y-122039085D01*
X74399122Y-122039085D02*
X74256265Y-122039085D01*
X74256265Y-122039085D02*
X74161027Y-121991466D01*
X74161027Y-121991466D02*
X74113408Y-121896228D01*
X74113408Y-121896228D02*
X74113408Y-121848609D01*
X74113408Y-121848609D02*
X74161027Y-121753371D01*
X74161027Y-121753371D02*
X74256265Y-121705752D01*
X74256265Y-121705752D02*
X74399122Y-121705752D01*
X74399122Y-121705752D02*
X74494360Y-121753371D01*
X74970551Y-122372419D02*
X74970551Y-121705752D01*
X74970551Y-121372419D02*
X74922932Y-121420038D01*
X74922932Y-121420038D02*
X74970551Y-121467657D01*
X74970551Y-121467657D02*
X75018170Y-121420038D01*
X75018170Y-121420038D02*
X74970551Y-121372419D01*
X74970551Y-121372419D02*
X74970551Y-121467657D01*
X75875312Y-121705752D02*
X75875312Y-122515276D01*
X75875312Y-122515276D02*
X75827693Y-122610514D01*
X75827693Y-122610514D02*
X75780074Y-122658133D01*
X75780074Y-122658133D02*
X75684836Y-122705752D01*
X75684836Y-122705752D02*
X75541979Y-122705752D01*
X75541979Y-122705752D02*
X75446741Y-122658133D01*
X75875312Y-122324800D02*
X75780074Y-122372419D01*
X75780074Y-122372419D02*
X75589598Y-122372419D01*
X75589598Y-122372419D02*
X75494360Y-122324800D01*
X75494360Y-122324800D02*
X75446741Y-122277180D01*
X75446741Y-122277180D02*
X75399122Y-122181942D01*
X75399122Y-122181942D02*
X75399122Y-121896228D01*
X75399122Y-121896228D02*
X75446741Y-121800990D01*
X75446741Y-121800990D02*
X75494360Y-121753371D01*
X75494360Y-121753371D02*
X75589598Y-121705752D01*
X75589598Y-121705752D02*
X75780074Y-121705752D01*
X75780074Y-121705752D02*
X75875312Y-121753371D01*
X76351503Y-121705752D02*
X76351503Y-122372419D01*
X76351503Y-121800990D02*
X76399122Y-121753371D01*
X76399122Y-121753371D02*
X76494360Y-121705752D01*
X76494360Y-121705752D02*
X76637217Y-121705752D01*
X76637217Y-121705752D02*
X76732455Y-121753371D01*
X76732455Y-121753371D02*
X76780074Y-121848609D01*
X76780074Y-121848609D02*
X76780074Y-122372419D01*
X77637217Y-122324800D02*
X77541979Y-122372419D01*
X77541979Y-122372419D02*
X77351503Y-122372419D01*
X77351503Y-122372419D02*
X77256265Y-122324800D01*
X77256265Y-122324800D02*
X77208646Y-122229561D01*
X77208646Y-122229561D02*
X77208646Y-121848609D01*
X77208646Y-121848609D02*
X77256265Y-121753371D01*
X77256265Y-121753371D02*
X77351503Y-121705752D01*
X77351503Y-121705752D02*
X77541979Y-121705752D01*
X77541979Y-121705752D02*
X77637217Y-121753371D01*
X77637217Y-121753371D02*
X77684836Y-121848609D01*
X77684836Y-121848609D02*
X77684836Y-121943847D01*
X77684836Y-121943847D02*
X77208646Y-122039085D01*
X78541979Y-122372419D02*
X78541979Y-121372419D01*
X78541979Y-122324800D02*
X78446741Y-122372419D01*
X78446741Y-122372419D02*
X78256265Y-122372419D01*
X78256265Y-122372419D02*
X78161027Y-122324800D01*
X78161027Y-122324800D02*
X78113408Y-122277180D01*
X78113408Y-122277180D02*
X78065789Y-122181942D01*
X78065789Y-122181942D02*
X78065789Y-121896228D01*
X78065789Y-121896228D02*
X78113408Y-121800990D01*
X78113408Y-121800990D02*
X78161027Y-121753371D01*
X78161027Y-121753371D02*
X78256265Y-121705752D01*
X78256265Y-121705752D02*
X78446741Y-121705752D01*
X78446741Y-121705752D02*
X78541979Y-121753371D01*
X80113408Y-121848609D02*
X80256265Y-121896228D01*
X80256265Y-121896228D02*
X80303884Y-121943847D01*
X80303884Y-121943847D02*
X80351503Y-122039085D01*
X80351503Y-122039085D02*
X80351503Y-122181942D01*
X80351503Y-122181942D02*
X80303884Y-122277180D01*
X80303884Y-122277180D02*
X80256265Y-122324800D01*
X80256265Y-122324800D02*
X80161027Y-122372419D01*
X80161027Y-122372419D02*
X79780075Y-122372419D01*
X79780075Y-122372419D02*
X79780075Y-121372419D01*
X79780075Y-121372419D02*
X80113408Y-121372419D01*
X80113408Y-121372419D02*
X80208646Y-121420038D01*
X80208646Y-121420038D02*
X80256265Y-121467657D01*
X80256265Y-121467657D02*
X80303884Y-121562895D01*
X80303884Y-121562895D02*
X80303884Y-121658133D01*
X80303884Y-121658133D02*
X80256265Y-121753371D01*
X80256265Y-121753371D02*
X80208646Y-121800990D01*
X80208646Y-121800990D02*
X80113408Y-121848609D01*
X80113408Y-121848609D02*
X79780075Y-121848609D01*
X80684837Y-121705752D02*
X80922932Y-122372419D01*
X81161027Y-121705752D02*
X80922932Y-122372419D01*
X80922932Y-122372419D02*
X80827694Y-122610514D01*
X80827694Y-122610514D02*
X80780075Y-122658133D01*
X80780075Y-122658133D02*
X80684837Y-122705752D01*
X82780075Y-122372419D02*
X82303885Y-122372419D01*
X82303885Y-122372419D02*
X82303885Y-121372419D01*
X83541980Y-122372419D02*
X83541980Y-121848609D01*
X83541980Y-121848609D02*
X83494361Y-121753371D01*
X83494361Y-121753371D02*
X83399123Y-121705752D01*
X83399123Y-121705752D02*
X83208647Y-121705752D01*
X83208647Y-121705752D02*
X83113409Y-121753371D01*
X83541980Y-122324800D02*
X83446742Y-122372419D01*
X83446742Y-122372419D02*
X83208647Y-122372419D01*
X83208647Y-122372419D02*
X83113409Y-122324800D01*
X83113409Y-122324800D02*
X83065790Y-122229561D01*
X83065790Y-122229561D02*
X83065790Y-122134323D01*
X83065790Y-122134323D02*
X83113409Y-122039085D01*
X83113409Y-122039085D02*
X83208647Y-121991466D01*
X83208647Y-121991466D02*
X83446742Y-121991466D01*
X83446742Y-121991466D02*
X83541980Y-121943847D01*
X83922933Y-121705752D02*
X84113409Y-122372419D01*
X84113409Y-122372419D02*
X84303885Y-121896228D01*
X84303885Y-121896228D02*
X84494361Y-122372419D01*
X84494361Y-122372419D02*
X84684837Y-121705752D01*
X85065790Y-122372419D02*
X85065790Y-121705752D01*
X85065790Y-121896228D02*
X85113409Y-121800990D01*
X85113409Y-121800990D02*
X85161028Y-121753371D01*
X85161028Y-121753371D02*
X85256266Y-121705752D01*
X85256266Y-121705752D02*
X85351504Y-121705752D01*
X85684838Y-122372419D02*
X85684838Y-121705752D01*
X85684838Y-121372419D02*
X85637219Y-121420038D01*
X85637219Y-121420038D02*
X85684838Y-121467657D01*
X85684838Y-121467657D02*
X85732457Y-121420038D01*
X85732457Y-121420038D02*
X85684838Y-121372419D01*
X85684838Y-121372419D02*
X85684838Y-121467657D01*
X86922933Y-122372419D02*
X86922933Y-121372419D01*
X86922933Y-121372419D02*
X87161028Y-121372419D01*
X87161028Y-121372419D02*
X87303885Y-121420038D01*
X87303885Y-121420038D02*
X87399123Y-121515276D01*
X87399123Y-121515276D02*
X87446742Y-121610514D01*
X87446742Y-121610514D02*
X87494361Y-121800990D01*
X87494361Y-121800990D02*
X87494361Y-121943847D01*
X87494361Y-121943847D02*
X87446742Y-122134323D01*
X87446742Y-122134323D02*
X87399123Y-122229561D01*
X87399123Y-122229561D02*
X87303885Y-122324800D01*
X87303885Y-122324800D02*
X87161028Y-122372419D01*
X87161028Y-122372419D02*
X86922933Y-122372419D01*
X88351504Y-122372419D02*
X88351504Y-121848609D01*
X88351504Y-121848609D02*
X88303885Y-121753371D01*
X88303885Y-121753371D02*
X88208647Y-121705752D01*
X88208647Y-121705752D02*
X88018171Y-121705752D01*
X88018171Y-121705752D02*
X87922933Y-121753371D01*
X88351504Y-122324800D02*
X88256266Y-122372419D01*
X88256266Y-122372419D02*
X88018171Y-122372419D01*
X88018171Y-122372419D02*
X87922933Y-122324800D01*
X87922933Y-122324800D02*
X87875314Y-122229561D01*
X87875314Y-122229561D02*
X87875314Y-122134323D01*
X87875314Y-122134323D02*
X87922933Y-122039085D01*
X87922933Y-122039085D02*
X88018171Y-121991466D01*
X88018171Y-121991466D02*
X88256266Y-121991466D01*
X88256266Y-121991466D02*
X88351504Y-121943847D01*
X88827695Y-122372419D02*
X88827695Y-121705752D01*
X88827695Y-121896228D02*
X88875314Y-121800990D01*
X88875314Y-121800990D02*
X88922933Y-121753371D01*
X88922933Y-121753371D02*
X89018171Y-121705752D01*
X89018171Y-121705752D02*
X89113409Y-121705752D01*
X89446743Y-122372419D02*
X89446743Y-121372419D01*
X89446743Y-121753371D02*
X89541981Y-121705752D01*
X89541981Y-121705752D02*
X89732457Y-121705752D01*
X89732457Y-121705752D02*
X89827695Y-121753371D01*
X89827695Y-121753371D02*
X89875314Y-121800990D01*
X89875314Y-121800990D02*
X89922933Y-121896228D01*
X89922933Y-121896228D02*
X89922933Y-122181942D01*
X89922933Y-122181942D02*
X89875314Y-122277180D01*
X89875314Y-122277180D02*
X89827695Y-122324800D01*
X89827695Y-122324800D02*
X89732457Y-122372419D01*
X89732457Y-122372419D02*
X89541981Y-122372419D01*
X89541981Y-122372419D02*
X89446743Y-122324800D01*
X90256267Y-121705752D02*
X90494362Y-122372419D01*
X90732457Y-121705752D02*
X90494362Y-122372419D01*
X90494362Y-122372419D02*
X90399124Y-122610514D01*
X90399124Y-122610514D02*
X90351505Y-122658133D01*
X90351505Y-122658133D02*
X90256267Y-122705752D01*
X91065791Y-122324800D02*
X91161029Y-122372419D01*
X91161029Y-122372419D02*
X91351505Y-122372419D01*
X91351505Y-122372419D02*
X91446743Y-122324800D01*
X91446743Y-122324800D02*
X91494362Y-122229561D01*
X91494362Y-122229561D02*
X91494362Y-122181942D01*
X91494362Y-122181942D02*
X91446743Y-122086704D01*
X91446743Y-122086704D02*
X91351505Y-122039085D01*
X91351505Y-122039085D02*
X91208648Y-122039085D01*
X91208648Y-122039085D02*
X91113410Y-121991466D01*
X91113410Y-121991466D02*
X91065791Y-121896228D01*
X91065791Y-121896228D02*
X91065791Y-121848609D01*
X91065791Y-121848609D02*
X91113410Y-121753371D01*
X91113410Y-121753371D02*
X91208648Y-121705752D01*
X91208648Y-121705752D02*
X91351505Y-121705752D01*
X91351505Y-121705752D02*
X91446743Y-121753371D01*
X91922934Y-122372419D02*
X91922934Y-121372419D01*
X92351505Y-122372419D02*
X92351505Y-121848609D01*
X92351505Y-121848609D02*
X92303886Y-121753371D01*
X92303886Y-121753371D02*
X92208648Y-121705752D01*
X92208648Y-121705752D02*
X92065791Y-121705752D01*
X92065791Y-121705752D02*
X91970553Y-121753371D01*
X91970553Y-121753371D02*
X91922934Y-121800990D01*
X92827696Y-122372419D02*
X92827696Y-121705752D01*
X92827696Y-121372419D02*
X92780077Y-121420038D01*
X92780077Y-121420038D02*
X92827696Y-121467657D01*
X92827696Y-121467657D02*
X92875315Y-121420038D01*
X92875315Y-121420038D02*
X92827696Y-121372419D01*
X92827696Y-121372419D02*
X92827696Y-121467657D01*
X93303886Y-122372419D02*
X93303886Y-121705752D01*
X93303886Y-121896228D02*
X93351505Y-121800990D01*
X93351505Y-121800990D02*
X93399124Y-121753371D01*
X93399124Y-121753371D02*
X93494362Y-121705752D01*
X93494362Y-121705752D02*
X93589600Y-121705752D01*
X94303886Y-122324800D02*
X94208648Y-122372419D01*
X94208648Y-122372419D02*
X94018172Y-122372419D01*
X94018172Y-122372419D02*
X93922934Y-122324800D01*
X93922934Y-122324800D02*
X93875315Y-122229561D01*
X93875315Y-122229561D02*
X93875315Y-121848609D01*
X93875315Y-121848609D02*
X93922934Y-121753371D01*
X93922934Y-121753371D02*
X94018172Y-121705752D01*
X94018172Y-121705752D02*
X94208648Y-121705752D01*
X94208648Y-121705752D02*
X94303886Y-121753371D01*
X94303886Y-121753371D02*
X94351505Y-121848609D01*
X94351505Y-121848609D02*
X94351505Y-121943847D01*
X94351505Y-121943847D02*
X93875315Y-122039085D01*
X95541982Y-122372419D02*
X95541982Y-121705752D01*
X95541982Y-121372419D02*
X95494363Y-121420038D01*
X95494363Y-121420038D02*
X95541982Y-121467657D01*
X95541982Y-121467657D02*
X95589601Y-121420038D01*
X95589601Y-121420038D02*
X95541982Y-121372419D01*
X95541982Y-121372419D02*
X95541982Y-121467657D01*
X96018172Y-121705752D02*
X96018172Y-122372419D01*
X96018172Y-121800990D02*
X96065791Y-121753371D01*
X96065791Y-121753371D02*
X96161029Y-121705752D01*
X96161029Y-121705752D02*
X96303886Y-121705752D01*
X96303886Y-121705752D02*
X96399124Y-121753371D01*
X96399124Y-121753371D02*
X96446743Y-121848609D01*
X96446743Y-121848609D02*
X96446743Y-122372419D01*
X97541982Y-121705752D02*
X97922934Y-121705752D01*
X97684839Y-121372419D02*
X97684839Y-122229561D01*
X97684839Y-122229561D02*
X97732458Y-122324800D01*
X97732458Y-122324800D02*
X97827696Y-122372419D01*
X97827696Y-122372419D02*
X97922934Y-122372419D01*
X98256268Y-122372419D02*
X98256268Y-121372419D01*
X98684839Y-122372419D02*
X98684839Y-121848609D01*
X98684839Y-121848609D02*
X98637220Y-121753371D01*
X98637220Y-121753371D02*
X98541982Y-121705752D01*
X98541982Y-121705752D02*
X98399125Y-121705752D01*
X98399125Y-121705752D02*
X98303887Y-121753371D01*
X98303887Y-121753371D02*
X98256268Y-121800990D01*
X99541982Y-122324800D02*
X99446744Y-122372419D01*
X99446744Y-122372419D02*
X99256268Y-122372419D01*
X99256268Y-122372419D02*
X99161030Y-122324800D01*
X99161030Y-122324800D02*
X99113411Y-122229561D01*
X99113411Y-122229561D02*
X99113411Y-121848609D01*
X99113411Y-121848609D02*
X99161030Y-121753371D01*
X99161030Y-121753371D02*
X99256268Y-121705752D01*
X99256268Y-121705752D02*
X99446744Y-121705752D01*
X99446744Y-121705752D02*
X99541982Y-121753371D01*
X99541982Y-121753371D02*
X99589601Y-121848609D01*
X99589601Y-121848609D02*
X99589601Y-121943847D01*
X99589601Y-121943847D02*
X99113411Y-122039085D01*
X100780078Y-121372419D02*
X100780078Y-122181942D01*
X100780078Y-122181942D02*
X100827697Y-122277180D01*
X100827697Y-122277180D02*
X100875316Y-122324800D01*
X100875316Y-122324800D02*
X100970554Y-122372419D01*
X100970554Y-122372419D02*
X101161030Y-122372419D01*
X101161030Y-122372419D02*
X101256268Y-122324800D01*
X101256268Y-122324800D02*
X101303887Y-122277180D01*
X101303887Y-122277180D02*
X101351506Y-122181942D01*
X101351506Y-122181942D02*
X101351506Y-121372419D01*
X101827697Y-122372419D02*
X101827697Y-121372419D01*
X102399125Y-122372419D02*
X101970554Y-121800990D01*
X102399125Y-121372419D02*
X101827697Y-121943847D01*
D11*
X104166667Y-62533200D02*
X104309524Y-62580819D01*
X104309524Y-62580819D02*
X104547619Y-62580819D01*
X104547619Y-62580819D02*
X104642857Y-62533200D01*
X104642857Y-62533200D02*
X104690476Y-62485580D01*
X104690476Y-62485580D02*
X104738095Y-62390342D01*
X104738095Y-62390342D02*
X104738095Y-62295104D01*
X104738095Y-62295104D02*
X104690476Y-62199866D01*
X104690476Y-62199866D02*
X104642857Y-62152247D01*
X104642857Y-62152247D02*
X104547619Y-62104628D01*
X104547619Y-62104628D02*
X104357143Y-62057009D01*
X104357143Y-62057009D02*
X104261905Y-62009390D01*
X104261905Y-62009390D02*
X104214286Y-61961771D01*
X104214286Y-61961771D02*
X104166667Y-61866533D01*
X104166667Y-61866533D02*
X104166667Y-61771295D01*
X104166667Y-61771295D02*
X104214286Y-61676057D01*
X104214286Y-61676057D02*
X104261905Y-61628438D01*
X104261905Y-61628438D02*
X104357143Y-61580819D01*
X104357143Y-61580819D02*
X104595238Y-61580819D01*
X104595238Y-61580819D02*
X104738095Y-61628438D01*
X105071429Y-61580819D02*
X105309524Y-62580819D01*
X105309524Y-62580819D02*
X105500000Y-61866533D01*
X105500000Y-61866533D02*
X105690476Y-62580819D01*
X105690476Y-62580819D02*
X105928572Y-61580819D01*
X106738095Y-61914152D02*
X106738095Y-62580819D01*
X106500000Y-61533200D02*
X106261905Y-62247485D01*
X106261905Y-62247485D02*
X106880952Y-62247485D01*
X66166667Y-81533200D02*
X66309524Y-81580819D01*
X66309524Y-81580819D02*
X66547619Y-81580819D01*
X66547619Y-81580819D02*
X66642857Y-81533200D01*
X66642857Y-81533200D02*
X66690476Y-81485580D01*
X66690476Y-81485580D02*
X66738095Y-81390342D01*
X66738095Y-81390342D02*
X66738095Y-81295104D01*
X66738095Y-81295104D02*
X66690476Y-81199866D01*
X66690476Y-81199866D02*
X66642857Y-81152247D01*
X66642857Y-81152247D02*
X66547619Y-81104628D01*
X66547619Y-81104628D02*
X66357143Y-81057009D01*
X66357143Y-81057009D02*
X66261905Y-81009390D01*
X66261905Y-81009390D02*
X66214286Y-80961771D01*
X66214286Y-80961771D02*
X66166667Y-80866533D01*
X66166667Y-80866533D02*
X66166667Y-80771295D01*
X66166667Y-80771295D02*
X66214286Y-80676057D01*
X66214286Y-80676057D02*
X66261905Y-80628438D01*
X66261905Y-80628438D02*
X66357143Y-80580819D01*
X66357143Y-80580819D02*
X66595238Y-80580819D01*
X66595238Y-80580819D02*
X66738095Y-80628438D01*
X67071429Y-80580819D02*
X67309524Y-81580819D01*
X67309524Y-81580819D02*
X67500000Y-80866533D01*
X67500000Y-80866533D02*
X67690476Y-81580819D01*
X67690476Y-81580819D02*
X67928572Y-80580819D01*
X68785714Y-80580819D02*
X68309524Y-80580819D01*
X68309524Y-80580819D02*
X68261905Y-81057009D01*
X68261905Y-81057009D02*
X68309524Y-81009390D01*
X68309524Y-81009390D02*
X68404762Y-80961771D01*
X68404762Y-80961771D02*
X68642857Y-80961771D01*
X68642857Y-80961771D02*
X68738095Y-81009390D01*
X68738095Y-81009390D02*
X68785714Y-81057009D01*
X68785714Y-81057009D02*
X68833333Y-81152247D01*
X68833333Y-81152247D02*
X68833333Y-81390342D01*
X68833333Y-81390342D02*
X68785714Y-81485580D01*
X68785714Y-81485580D02*
X68738095Y-81533200D01*
X68738095Y-81533200D02*
X68642857Y-81580819D01*
X68642857Y-81580819D02*
X68404762Y-81580819D01*
X68404762Y-81580819D02*
X68309524Y-81533200D01*
X68309524Y-81533200D02*
X68261905Y-81485580D01*
X104166667Y-100533200D02*
X104309524Y-100580819D01*
X104309524Y-100580819D02*
X104547619Y-100580819D01*
X104547619Y-100580819D02*
X104642857Y-100533200D01*
X104642857Y-100533200D02*
X104690476Y-100485580D01*
X104690476Y-100485580D02*
X104738095Y-100390342D01*
X104738095Y-100390342D02*
X104738095Y-100295104D01*
X104738095Y-100295104D02*
X104690476Y-100199866D01*
X104690476Y-100199866D02*
X104642857Y-100152247D01*
X104642857Y-100152247D02*
X104547619Y-100104628D01*
X104547619Y-100104628D02*
X104357143Y-100057009D01*
X104357143Y-100057009D02*
X104261905Y-100009390D01*
X104261905Y-100009390D02*
X104214286Y-99961771D01*
X104214286Y-99961771D02*
X104166667Y-99866533D01*
X104166667Y-99866533D02*
X104166667Y-99771295D01*
X104166667Y-99771295D02*
X104214286Y-99676057D01*
X104214286Y-99676057D02*
X104261905Y-99628438D01*
X104261905Y-99628438D02*
X104357143Y-99580819D01*
X104357143Y-99580819D02*
X104595238Y-99580819D01*
X104595238Y-99580819D02*
X104738095Y-99628438D01*
X105071429Y-99580819D02*
X105309524Y-100580819D01*
X105309524Y-100580819D02*
X105500000Y-99866533D01*
X105500000Y-99866533D02*
X105690476Y-100580819D01*
X105690476Y-100580819D02*
X105928572Y-99580819D01*
X106214286Y-99580819D02*
X106880952Y-99580819D01*
X106880952Y-99580819D02*
X106452381Y-100580819D01*
X66086667Y-62533200D02*
X66229524Y-62580819D01*
X66229524Y-62580819D02*
X66467619Y-62580819D01*
X66467619Y-62580819D02*
X66562857Y-62533200D01*
X66562857Y-62533200D02*
X66610476Y-62485580D01*
X66610476Y-62485580D02*
X66658095Y-62390342D01*
X66658095Y-62390342D02*
X66658095Y-62295104D01*
X66658095Y-62295104D02*
X66610476Y-62199866D01*
X66610476Y-62199866D02*
X66562857Y-62152247D01*
X66562857Y-62152247D02*
X66467619Y-62104628D01*
X66467619Y-62104628D02*
X66277143Y-62057009D01*
X66277143Y-62057009D02*
X66181905Y-62009390D01*
X66181905Y-62009390D02*
X66134286Y-61961771D01*
X66134286Y-61961771D02*
X66086667Y-61866533D01*
X66086667Y-61866533D02*
X66086667Y-61771295D01*
X66086667Y-61771295D02*
X66134286Y-61676057D01*
X66134286Y-61676057D02*
X66181905Y-61628438D01*
X66181905Y-61628438D02*
X66277143Y-61580819D01*
X66277143Y-61580819D02*
X66515238Y-61580819D01*
X66515238Y-61580819D02*
X66658095Y-61628438D01*
X66991429Y-61580819D02*
X67229524Y-62580819D01*
X67229524Y-62580819D02*
X67420000Y-61866533D01*
X67420000Y-61866533D02*
X67610476Y-62580819D01*
X67610476Y-62580819D02*
X67848572Y-61580819D01*
X68181905Y-61676057D02*
X68229524Y-61628438D01*
X68229524Y-61628438D02*
X68324762Y-61580819D01*
X68324762Y-61580819D02*
X68562857Y-61580819D01*
X68562857Y-61580819D02*
X68658095Y-61628438D01*
X68658095Y-61628438D02*
X68705714Y-61676057D01*
X68705714Y-61676057D02*
X68753333Y-61771295D01*
X68753333Y-61771295D02*
X68753333Y-61866533D01*
X68753333Y-61866533D02*
X68705714Y-62009390D01*
X68705714Y-62009390D02*
X68134286Y-62580819D01*
X68134286Y-62580819D02*
X68753333Y-62580819D01*
X103690476Y-81533200D02*
X103833333Y-81580819D01*
X103833333Y-81580819D02*
X104071428Y-81580819D01*
X104071428Y-81580819D02*
X104166666Y-81533200D01*
X104166666Y-81533200D02*
X104214285Y-81485580D01*
X104214285Y-81485580D02*
X104261904Y-81390342D01*
X104261904Y-81390342D02*
X104261904Y-81295104D01*
X104261904Y-81295104D02*
X104214285Y-81199866D01*
X104214285Y-81199866D02*
X104166666Y-81152247D01*
X104166666Y-81152247D02*
X104071428Y-81104628D01*
X104071428Y-81104628D02*
X103880952Y-81057009D01*
X103880952Y-81057009D02*
X103785714Y-81009390D01*
X103785714Y-81009390D02*
X103738095Y-80961771D01*
X103738095Y-80961771D02*
X103690476Y-80866533D01*
X103690476Y-80866533D02*
X103690476Y-80771295D01*
X103690476Y-80771295D02*
X103738095Y-80676057D01*
X103738095Y-80676057D02*
X103785714Y-80628438D01*
X103785714Y-80628438D02*
X103880952Y-80580819D01*
X103880952Y-80580819D02*
X104119047Y-80580819D01*
X104119047Y-80580819D02*
X104261904Y-80628438D01*
X104595238Y-80580819D02*
X104833333Y-81580819D01*
X104833333Y-81580819D02*
X105023809Y-80866533D01*
X105023809Y-80866533D02*
X105214285Y-81580819D01*
X105214285Y-81580819D02*
X105452381Y-80580819D01*
X106357142Y-81580819D02*
X105785714Y-81580819D01*
X106071428Y-81580819D02*
X106071428Y-80580819D01*
X106071428Y-80580819D02*
X105976190Y-80723676D01*
X105976190Y-80723676D02*
X105880952Y-80818914D01*
X105880952Y-80818914D02*
X105785714Y-80866533D01*
X106976190Y-80580819D02*
X107071428Y-80580819D01*
X107071428Y-80580819D02*
X107166666Y-80628438D01*
X107166666Y-80628438D02*
X107214285Y-80676057D01*
X107214285Y-80676057D02*
X107261904Y-80771295D01*
X107261904Y-80771295D02*
X107309523Y-80961771D01*
X107309523Y-80961771D02*
X107309523Y-81199866D01*
X107309523Y-81199866D02*
X107261904Y-81390342D01*
X107261904Y-81390342D02*
X107214285Y-81485580D01*
X107214285Y-81485580D02*
X107166666Y-81533200D01*
X107166666Y-81533200D02*
X107071428Y-81580819D01*
X107071428Y-81580819D02*
X106976190Y-81580819D01*
X106976190Y-81580819D02*
X106880952Y-81533200D01*
X106880952Y-81533200D02*
X106833333Y-81485580D01*
X106833333Y-81485580D02*
X106785714Y-81390342D01*
X106785714Y-81390342D02*
X106738095Y-81199866D01*
X106738095Y-81199866D02*
X106738095Y-80961771D01*
X106738095Y-80961771D02*
X106785714Y-80771295D01*
X106785714Y-80771295D02*
X106833333Y-80676057D01*
X106833333Y-80676057D02*
X106880952Y-80628438D01*
X106880952Y-80628438D02*
X106976190Y-80580819D01*
X85086667Y-62533200D02*
X85229524Y-62580819D01*
X85229524Y-62580819D02*
X85467619Y-62580819D01*
X85467619Y-62580819D02*
X85562857Y-62533200D01*
X85562857Y-62533200D02*
X85610476Y-62485580D01*
X85610476Y-62485580D02*
X85658095Y-62390342D01*
X85658095Y-62390342D02*
X85658095Y-62295104D01*
X85658095Y-62295104D02*
X85610476Y-62199866D01*
X85610476Y-62199866D02*
X85562857Y-62152247D01*
X85562857Y-62152247D02*
X85467619Y-62104628D01*
X85467619Y-62104628D02*
X85277143Y-62057009D01*
X85277143Y-62057009D02*
X85181905Y-62009390D01*
X85181905Y-62009390D02*
X85134286Y-61961771D01*
X85134286Y-61961771D02*
X85086667Y-61866533D01*
X85086667Y-61866533D02*
X85086667Y-61771295D01*
X85086667Y-61771295D02*
X85134286Y-61676057D01*
X85134286Y-61676057D02*
X85181905Y-61628438D01*
X85181905Y-61628438D02*
X85277143Y-61580819D01*
X85277143Y-61580819D02*
X85515238Y-61580819D01*
X85515238Y-61580819D02*
X85658095Y-61628438D01*
X85991429Y-61580819D02*
X86229524Y-62580819D01*
X86229524Y-62580819D02*
X86420000Y-61866533D01*
X86420000Y-61866533D02*
X86610476Y-62580819D01*
X86610476Y-62580819D02*
X86848572Y-61580819D01*
X87134286Y-61580819D02*
X87753333Y-61580819D01*
X87753333Y-61580819D02*
X87420000Y-61961771D01*
X87420000Y-61961771D02*
X87562857Y-61961771D01*
X87562857Y-61961771D02*
X87658095Y-62009390D01*
X87658095Y-62009390D02*
X87705714Y-62057009D01*
X87705714Y-62057009D02*
X87753333Y-62152247D01*
X87753333Y-62152247D02*
X87753333Y-62390342D01*
X87753333Y-62390342D02*
X87705714Y-62485580D01*
X87705714Y-62485580D02*
X87658095Y-62533200D01*
X87658095Y-62533200D02*
X87562857Y-62580819D01*
X87562857Y-62580819D02*
X87277143Y-62580819D01*
X87277143Y-62580819D02*
X87181905Y-62533200D01*
X87181905Y-62533200D02*
X87134286Y-62485580D01*
X91554819Y-49423333D02*
X92269104Y-49423333D01*
X92269104Y-49423333D02*
X92411961Y-49470952D01*
X92411961Y-49470952D02*
X92507200Y-49566190D01*
X92507200Y-49566190D02*
X92554819Y-49709047D01*
X92554819Y-49709047D02*
X92554819Y-49804285D01*
X92554819Y-48423333D02*
X92554819Y-48994761D01*
X92554819Y-48709047D02*
X91554819Y-48709047D01*
X91554819Y-48709047D02*
X91697676Y-48804285D01*
X91697676Y-48804285D02*
X91792914Y-48899523D01*
X91792914Y-48899523D02*
X91840533Y-48994761D01*
X58974164Y-51154999D02*
X59724164Y-50904999D01*
X59724164Y-50904999D02*
X58974164Y-50654999D01*
X59652735Y-49976428D02*
X59688450Y-50012142D01*
X59688450Y-50012142D02*
X59724164Y-50119285D01*
X59724164Y-50119285D02*
X59724164Y-50190713D01*
X59724164Y-50190713D02*
X59688450Y-50297856D01*
X59688450Y-50297856D02*
X59617021Y-50369285D01*
X59617021Y-50369285D02*
X59545592Y-50404999D01*
X59545592Y-50404999D02*
X59402735Y-50440713D01*
X59402735Y-50440713D02*
X59295592Y-50440713D01*
X59295592Y-50440713D02*
X59152735Y-50404999D01*
X59152735Y-50404999D02*
X59081307Y-50369285D01*
X59081307Y-50369285D02*
X59009878Y-50297856D01*
X59009878Y-50297856D02*
X58974164Y-50190713D01*
X58974164Y-50190713D02*
X58974164Y-50119285D01*
X58974164Y-50119285D02*
X59009878Y-50012142D01*
X59009878Y-50012142D02*
X59045592Y-49976428D01*
X59652735Y-49226428D02*
X59688450Y-49262142D01*
X59688450Y-49262142D02*
X59724164Y-49369285D01*
X59724164Y-49369285D02*
X59724164Y-49440713D01*
X59724164Y-49440713D02*
X59688450Y-49547856D01*
X59688450Y-49547856D02*
X59617021Y-49619285D01*
X59617021Y-49619285D02*
X59545592Y-49654999D01*
X59545592Y-49654999D02*
X59402735Y-49690713D01*
X59402735Y-49690713D02*
X59295592Y-49690713D01*
X59295592Y-49690713D02*
X59152735Y-49654999D01*
X59152735Y-49654999D02*
X59081307Y-49619285D01*
X59081307Y-49619285D02*
X59009878Y-49547856D01*
X59009878Y-49547856D02*
X58974164Y-49440713D01*
X58974164Y-49440713D02*
X58974164Y-49369285D01*
X58974164Y-49369285D02*
X59009878Y-49262142D01*
X59009878Y-49262142D02*
X59045592Y-49226428D01*
X59688450Y-48507856D02*
X59724164Y-48400714D01*
X59724164Y-48400714D02*
X59724164Y-48222142D01*
X59724164Y-48222142D02*
X59688450Y-48150714D01*
X59688450Y-48150714D02*
X59652735Y-48114999D01*
X59652735Y-48114999D02*
X59581307Y-48079285D01*
X59581307Y-48079285D02*
X59509878Y-48079285D01*
X59509878Y-48079285D02*
X59438450Y-48114999D01*
X59438450Y-48114999D02*
X59402735Y-48150714D01*
X59402735Y-48150714D02*
X59367021Y-48222142D01*
X59367021Y-48222142D02*
X59331307Y-48364999D01*
X59331307Y-48364999D02*
X59295592Y-48436428D01*
X59295592Y-48436428D02*
X59259878Y-48472142D01*
X59259878Y-48472142D02*
X59188450Y-48507856D01*
X59188450Y-48507856D02*
X59117021Y-48507856D01*
X59117021Y-48507856D02*
X59045592Y-48472142D01*
X59045592Y-48472142D02*
X59009878Y-48436428D01*
X59009878Y-48436428D02*
X58974164Y-48364999D01*
X58974164Y-48364999D02*
X58974164Y-48186428D01*
X58974164Y-48186428D02*
X59009878Y-48079285D01*
X59652735Y-47329285D02*
X59688450Y-47364999D01*
X59688450Y-47364999D02*
X59724164Y-47472142D01*
X59724164Y-47472142D02*
X59724164Y-47543570D01*
X59724164Y-47543570D02*
X59688450Y-47650713D01*
X59688450Y-47650713D02*
X59617021Y-47722142D01*
X59617021Y-47722142D02*
X59545592Y-47757856D01*
X59545592Y-47757856D02*
X59402735Y-47793570D01*
X59402735Y-47793570D02*
X59295592Y-47793570D01*
X59295592Y-47793570D02*
X59152735Y-47757856D01*
X59152735Y-47757856D02*
X59081307Y-47722142D01*
X59081307Y-47722142D02*
X59009878Y-47650713D01*
X59009878Y-47650713D02*
X58974164Y-47543570D01*
X58974164Y-47543570D02*
X58974164Y-47472142D01*
X58974164Y-47472142D02*
X59009878Y-47364999D01*
X59009878Y-47364999D02*
X59045592Y-47329285D01*
X59724164Y-46650713D02*
X59724164Y-47007856D01*
X59724164Y-47007856D02*
X58974164Y-47007856D01*
X59688450Y-45985713D02*
X59724164Y-45878571D01*
X59724164Y-45878571D02*
X59724164Y-45699999D01*
X59724164Y-45699999D02*
X59688450Y-45628571D01*
X59688450Y-45628571D02*
X59652735Y-45592856D01*
X59652735Y-45592856D02*
X59581307Y-45557142D01*
X59581307Y-45557142D02*
X59509878Y-45557142D01*
X59509878Y-45557142D02*
X59438450Y-45592856D01*
X59438450Y-45592856D02*
X59402735Y-45628571D01*
X59402735Y-45628571D02*
X59367021Y-45699999D01*
X59367021Y-45699999D02*
X59331307Y-45842856D01*
X59331307Y-45842856D02*
X59295592Y-45914285D01*
X59295592Y-45914285D02*
X59259878Y-45949999D01*
X59259878Y-45949999D02*
X59188450Y-45985713D01*
X59188450Y-45985713D02*
X59117021Y-45985713D01*
X59117021Y-45985713D02*
X59045592Y-45949999D01*
X59045592Y-45949999D02*
X59009878Y-45914285D01*
X59009878Y-45914285D02*
X58974164Y-45842856D01*
X58974164Y-45842856D02*
X58974164Y-45664285D01*
X58974164Y-45664285D02*
X59009878Y-45557142D01*
X59724164Y-45235713D02*
X58974164Y-45235713D01*
X58974164Y-45235713D02*
X58974164Y-45057142D01*
X58974164Y-45057142D02*
X59009878Y-44949999D01*
X59009878Y-44949999D02*
X59081307Y-44878570D01*
X59081307Y-44878570D02*
X59152735Y-44842856D01*
X59152735Y-44842856D02*
X59295592Y-44807142D01*
X59295592Y-44807142D02*
X59402735Y-44807142D01*
X59402735Y-44807142D02*
X59545592Y-44842856D01*
X59545592Y-44842856D02*
X59617021Y-44878570D01*
X59617021Y-44878570D02*
X59688450Y-44949999D01*
X59688450Y-44949999D02*
X59724164Y-45057142D01*
X59724164Y-45057142D02*
X59724164Y-45235713D01*
X59509878Y-44521427D02*
X59509878Y-44164285D01*
X59724164Y-44592856D02*
X58974164Y-44342856D01*
X58974164Y-44342856D02*
X59724164Y-44092856D01*
X59009878Y-53266428D02*
X58974164Y-53337857D01*
X58974164Y-53337857D02*
X58974164Y-53444999D01*
X58974164Y-53444999D02*
X59009878Y-53552142D01*
X59009878Y-53552142D02*
X59081307Y-53623571D01*
X59081307Y-53623571D02*
X59152735Y-53659285D01*
X59152735Y-53659285D02*
X59295592Y-53694999D01*
X59295592Y-53694999D02*
X59402735Y-53694999D01*
X59402735Y-53694999D02*
X59545592Y-53659285D01*
X59545592Y-53659285D02*
X59617021Y-53623571D01*
X59617021Y-53623571D02*
X59688450Y-53552142D01*
X59688450Y-53552142D02*
X59724164Y-53444999D01*
X59724164Y-53444999D02*
X59724164Y-53373571D01*
X59724164Y-53373571D02*
X59688450Y-53266428D01*
X59688450Y-53266428D02*
X59652735Y-53230714D01*
X59652735Y-53230714D02*
X59402735Y-53230714D01*
X59402735Y-53230714D02*
X59402735Y-53373571D01*
X59724164Y-52909285D02*
X58974164Y-52909285D01*
X58974164Y-52909285D02*
X59724164Y-52480714D01*
X59724164Y-52480714D02*
X58974164Y-52480714D01*
X59724164Y-52123571D02*
X58974164Y-52123571D01*
X58974164Y-52123571D02*
X58974164Y-51945000D01*
X58974164Y-51945000D02*
X59009878Y-51837857D01*
X59009878Y-51837857D02*
X59081307Y-51766428D01*
X59081307Y-51766428D02*
X59152735Y-51730714D01*
X59152735Y-51730714D02*
X59295592Y-51695000D01*
X59295592Y-51695000D02*
X59402735Y-51695000D01*
X59402735Y-51695000D02*
X59545592Y-51730714D01*
X59545592Y-51730714D02*
X59617021Y-51766428D01*
X59617021Y-51766428D02*
X59688450Y-51837857D01*
X59688450Y-51837857D02*
X59724164Y-51945000D01*
X59724164Y-51945000D02*
X59724164Y-52123571D01*
X71071428Y-48454819D02*
X71261904Y-48454819D01*
X71261904Y-48454819D02*
X71357142Y-48502438D01*
X71357142Y-48502438D02*
X71452380Y-48597676D01*
X71452380Y-48597676D02*
X71499999Y-48788152D01*
X71499999Y-48788152D02*
X71499999Y-49121485D01*
X71499999Y-49121485D02*
X71452380Y-49311961D01*
X71452380Y-49311961D02*
X71357142Y-49407200D01*
X71357142Y-49407200D02*
X71261904Y-49454819D01*
X71261904Y-49454819D02*
X71071428Y-49454819D01*
X71071428Y-49454819D02*
X70976190Y-49407200D01*
X70976190Y-49407200D02*
X70880952Y-49311961D01*
X70880952Y-49311961D02*
X70833333Y-49121485D01*
X70833333Y-49121485D02*
X70833333Y-48788152D01*
X70833333Y-48788152D02*
X70880952Y-48597676D01*
X70880952Y-48597676D02*
X70976190Y-48502438D01*
X70976190Y-48502438D02*
X71071428Y-48454819D01*
X72404761Y-49454819D02*
X71928571Y-49454819D01*
X71928571Y-49454819D02*
X71928571Y-48454819D01*
X72738095Y-48931009D02*
X73071428Y-48931009D01*
X73214285Y-49454819D02*
X72738095Y-49454819D01*
X72738095Y-49454819D02*
X72738095Y-48454819D01*
X72738095Y-48454819D02*
X73214285Y-48454819D01*
X73642857Y-49454819D02*
X73642857Y-48454819D01*
X73642857Y-48454819D02*
X73880952Y-48454819D01*
X73880952Y-48454819D02*
X74023809Y-48502438D01*
X74023809Y-48502438D02*
X74119047Y-48597676D01*
X74119047Y-48597676D02*
X74166666Y-48692914D01*
X74166666Y-48692914D02*
X74214285Y-48883390D01*
X74214285Y-48883390D02*
X74214285Y-49026247D01*
X74214285Y-49026247D02*
X74166666Y-49216723D01*
X74166666Y-49216723D02*
X74119047Y-49311961D01*
X74119047Y-49311961D02*
X74023809Y-49407200D01*
X74023809Y-49407200D02*
X73880952Y-49454819D01*
X73880952Y-49454819D02*
X73642857Y-49454819D01*
X75404762Y-49454819D02*
X75404762Y-48454819D01*
X75404762Y-48454819D02*
X75785714Y-48454819D01*
X75785714Y-48454819D02*
X75880952Y-48502438D01*
X75880952Y-48502438D02*
X75928571Y-48550057D01*
X75928571Y-48550057D02*
X75976190Y-48645295D01*
X75976190Y-48645295D02*
X75976190Y-48788152D01*
X75976190Y-48788152D02*
X75928571Y-48883390D01*
X75928571Y-48883390D02*
X75880952Y-48931009D01*
X75880952Y-48931009D02*
X75785714Y-48978628D01*
X75785714Y-48978628D02*
X75404762Y-48978628D01*
X76833333Y-49454819D02*
X76833333Y-48931009D01*
X76833333Y-48931009D02*
X76785714Y-48835771D01*
X76785714Y-48835771D02*
X76690476Y-48788152D01*
X76690476Y-48788152D02*
X76500000Y-48788152D01*
X76500000Y-48788152D02*
X76404762Y-48835771D01*
X76833333Y-49407200D02*
X76738095Y-49454819D01*
X76738095Y-49454819D02*
X76500000Y-49454819D01*
X76500000Y-49454819D02*
X76404762Y-49407200D01*
X76404762Y-49407200D02*
X76357143Y-49311961D01*
X76357143Y-49311961D02*
X76357143Y-49216723D01*
X76357143Y-49216723D02*
X76404762Y-49121485D01*
X76404762Y-49121485D02*
X76500000Y-49073866D01*
X76500000Y-49073866D02*
X76738095Y-49073866D01*
X76738095Y-49073866D02*
X76833333Y-49026247D01*
X77309524Y-48788152D02*
X77309524Y-49454819D01*
X77309524Y-48883390D02*
X77357143Y-48835771D01*
X77357143Y-48835771D02*
X77452381Y-48788152D01*
X77452381Y-48788152D02*
X77595238Y-48788152D01*
X77595238Y-48788152D02*
X77690476Y-48835771D01*
X77690476Y-48835771D02*
X77738095Y-48931009D01*
X77738095Y-48931009D02*
X77738095Y-49454819D01*
X78595238Y-49407200D02*
X78500000Y-49454819D01*
X78500000Y-49454819D02*
X78309524Y-49454819D01*
X78309524Y-49454819D02*
X78214286Y-49407200D01*
X78214286Y-49407200D02*
X78166667Y-49311961D01*
X78166667Y-49311961D02*
X78166667Y-48931009D01*
X78166667Y-48931009D02*
X78214286Y-48835771D01*
X78214286Y-48835771D02*
X78309524Y-48788152D01*
X78309524Y-48788152D02*
X78500000Y-48788152D01*
X78500000Y-48788152D02*
X78595238Y-48835771D01*
X78595238Y-48835771D02*
X78642857Y-48931009D01*
X78642857Y-48931009D02*
X78642857Y-49026247D01*
X78642857Y-49026247D02*
X78166667Y-49121485D01*
X79214286Y-49454819D02*
X79119048Y-49407200D01*
X79119048Y-49407200D02*
X79071429Y-49311961D01*
X79071429Y-49311961D02*
X79071429Y-48454819D01*
X66086667Y-100533200D02*
X66229524Y-100580819D01*
X66229524Y-100580819D02*
X66467619Y-100580819D01*
X66467619Y-100580819D02*
X66562857Y-100533200D01*
X66562857Y-100533200D02*
X66610476Y-100485580D01*
X66610476Y-100485580D02*
X66658095Y-100390342D01*
X66658095Y-100390342D02*
X66658095Y-100295104D01*
X66658095Y-100295104D02*
X66610476Y-100199866D01*
X66610476Y-100199866D02*
X66562857Y-100152247D01*
X66562857Y-100152247D02*
X66467619Y-100104628D01*
X66467619Y-100104628D02*
X66277143Y-100057009D01*
X66277143Y-100057009D02*
X66181905Y-100009390D01*
X66181905Y-100009390D02*
X66134286Y-99961771D01*
X66134286Y-99961771D02*
X66086667Y-99866533D01*
X66086667Y-99866533D02*
X66086667Y-99771295D01*
X66086667Y-99771295D02*
X66134286Y-99676057D01*
X66134286Y-99676057D02*
X66181905Y-99628438D01*
X66181905Y-99628438D02*
X66277143Y-99580819D01*
X66277143Y-99580819D02*
X66515238Y-99580819D01*
X66515238Y-99580819D02*
X66658095Y-99628438D01*
X66991429Y-99580819D02*
X67229524Y-100580819D01*
X67229524Y-100580819D02*
X67420000Y-99866533D01*
X67420000Y-99866533D02*
X67610476Y-100580819D01*
X67610476Y-100580819D02*
X67848572Y-99580819D01*
X68372381Y-100009390D02*
X68277143Y-99961771D01*
X68277143Y-99961771D02*
X68229524Y-99914152D01*
X68229524Y-99914152D02*
X68181905Y-99818914D01*
X68181905Y-99818914D02*
X68181905Y-99771295D01*
X68181905Y-99771295D02*
X68229524Y-99676057D01*
X68229524Y-99676057D02*
X68277143Y-99628438D01*
X68277143Y-99628438D02*
X68372381Y-99580819D01*
X68372381Y-99580819D02*
X68562857Y-99580819D01*
X68562857Y-99580819D02*
X68658095Y-99628438D01*
X68658095Y-99628438D02*
X68705714Y-99676057D01*
X68705714Y-99676057D02*
X68753333Y-99771295D01*
X68753333Y-99771295D02*
X68753333Y-99818914D01*
X68753333Y-99818914D02*
X68705714Y-99914152D01*
X68705714Y-99914152D02*
X68658095Y-99961771D01*
X68658095Y-99961771D02*
X68562857Y-100009390D01*
X68562857Y-100009390D02*
X68372381Y-100009390D01*
X68372381Y-100009390D02*
X68277143Y-100057009D01*
X68277143Y-100057009D02*
X68229524Y-100104628D01*
X68229524Y-100104628D02*
X68181905Y-100199866D01*
X68181905Y-100199866D02*
X68181905Y-100390342D01*
X68181905Y-100390342D02*
X68229524Y-100485580D01*
X68229524Y-100485580D02*
X68277143Y-100533200D01*
X68277143Y-100533200D02*
X68372381Y-100580819D01*
X68372381Y-100580819D02*
X68562857Y-100580819D01*
X68562857Y-100580819D02*
X68658095Y-100533200D01*
X68658095Y-100533200D02*
X68705714Y-100485580D01*
X68705714Y-100485580D02*
X68753333Y-100390342D01*
X68753333Y-100390342D02*
X68753333Y-100199866D01*
X68753333Y-100199866D02*
X68705714Y-100104628D01*
X68705714Y-100104628D02*
X68658095Y-100057009D01*
X68658095Y-100057009D02*
X68562857Y-100009390D01*
X85166667Y-100533200D02*
X85309524Y-100580819D01*
X85309524Y-100580819D02*
X85547619Y-100580819D01*
X85547619Y-100580819D02*
X85642857Y-100533200D01*
X85642857Y-100533200D02*
X85690476Y-100485580D01*
X85690476Y-100485580D02*
X85738095Y-100390342D01*
X85738095Y-100390342D02*
X85738095Y-100295104D01*
X85738095Y-100295104D02*
X85690476Y-100199866D01*
X85690476Y-100199866D02*
X85642857Y-100152247D01*
X85642857Y-100152247D02*
X85547619Y-100104628D01*
X85547619Y-100104628D02*
X85357143Y-100057009D01*
X85357143Y-100057009D02*
X85261905Y-100009390D01*
X85261905Y-100009390D02*
X85214286Y-99961771D01*
X85214286Y-99961771D02*
X85166667Y-99866533D01*
X85166667Y-99866533D02*
X85166667Y-99771295D01*
X85166667Y-99771295D02*
X85214286Y-99676057D01*
X85214286Y-99676057D02*
X85261905Y-99628438D01*
X85261905Y-99628438D02*
X85357143Y-99580819D01*
X85357143Y-99580819D02*
X85595238Y-99580819D01*
X85595238Y-99580819D02*
X85738095Y-99628438D01*
X86071429Y-99580819D02*
X86309524Y-100580819D01*
X86309524Y-100580819D02*
X86500000Y-99866533D01*
X86500000Y-99866533D02*
X86690476Y-100580819D01*
X86690476Y-100580819D02*
X86928572Y-99580819D01*
X87357143Y-100580819D02*
X87547619Y-100580819D01*
X87547619Y-100580819D02*
X87642857Y-100533200D01*
X87642857Y-100533200D02*
X87690476Y-100485580D01*
X87690476Y-100485580D02*
X87785714Y-100342723D01*
X87785714Y-100342723D02*
X87833333Y-100152247D01*
X87833333Y-100152247D02*
X87833333Y-99771295D01*
X87833333Y-99771295D02*
X87785714Y-99676057D01*
X87785714Y-99676057D02*
X87738095Y-99628438D01*
X87738095Y-99628438D02*
X87642857Y-99580819D01*
X87642857Y-99580819D02*
X87452381Y-99580819D01*
X87452381Y-99580819D02*
X87357143Y-99628438D01*
X87357143Y-99628438D02*
X87309524Y-99676057D01*
X87309524Y-99676057D02*
X87261905Y-99771295D01*
X87261905Y-99771295D02*
X87261905Y-100009390D01*
X87261905Y-100009390D02*
X87309524Y-100104628D01*
X87309524Y-100104628D02*
X87357143Y-100152247D01*
X87357143Y-100152247D02*
X87452381Y-100199866D01*
X87452381Y-100199866D02*
X87642857Y-100199866D01*
X87642857Y-100199866D02*
X87738095Y-100152247D01*
X87738095Y-100152247D02*
X87785714Y-100104628D01*
X87785714Y-100104628D02*
X87833333Y-100009390D01*
D12*
X99061190Y-35533479D02*
X99061190Y-36047526D01*
X99061190Y-36047526D02*
X99091428Y-36108002D01*
X99091428Y-36108002D02*
X99121666Y-36138241D01*
X99121666Y-36138241D02*
X99182142Y-36168479D01*
X99182142Y-36168479D02*
X99303095Y-36168479D01*
X99303095Y-36168479D02*
X99363571Y-36138241D01*
X99363571Y-36138241D02*
X99393809Y-36108002D01*
X99393809Y-36108002D02*
X99424047Y-36047526D01*
X99424047Y-36047526D02*
X99424047Y-35533479D01*
X100059047Y-36168479D02*
X99696190Y-36168479D01*
X99877618Y-36168479D02*
X99877618Y-35533479D01*
X99877618Y-35533479D02*
X99817142Y-35624193D01*
X99817142Y-35624193D02*
X99756666Y-35684669D01*
X99756666Y-35684669D02*
X99696190Y-35714907D01*
D11*
X85166667Y-81533200D02*
X85309524Y-81580819D01*
X85309524Y-81580819D02*
X85547619Y-81580819D01*
X85547619Y-81580819D02*
X85642857Y-81533200D01*
X85642857Y-81533200D02*
X85690476Y-81485580D01*
X85690476Y-81485580D02*
X85738095Y-81390342D01*
X85738095Y-81390342D02*
X85738095Y-81295104D01*
X85738095Y-81295104D02*
X85690476Y-81199866D01*
X85690476Y-81199866D02*
X85642857Y-81152247D01*
X85642857Y-81152247D02*
X85547619Y-81104628D01*
X85547619Y-81104628D02*
X85357143Y-81057009D01*
X85357143Y-81057009D02*
X85261905Y-81009390D01*
X85261905Y-81009390D02*
X85214286Y-80961771D01*
X85214286Y-80961771D02*
X85166667Y-80866533D01*
X85166667Y-80866533D02*
X85166667Y-80771295D01*
X85166667Y-80771295D02*
X85214286Y-80676057D01*
X85214286Y-80676057D02*
X85261905Y-80628438D01*
X85261905Y-80628438D02*
X85357143Y-80580819D01*
X85357143Y-80580819D02*
X85595238Y-80580819D01*
X85595238Y-80580819D02*
X85738095Y-80628438D01*
X86071429Y-80580819D02*
X86309524Y-81580819D01*
X86309524Y-81580819D02*
X86500000Y-80866533D01*
X86500000Y-80866533D02*
X86690476Y-81580819D01*
X86690476Y-81580819D02*
X86928572Y-80580819D01*
X87738095Y-80580819D02*
X87547619Y-80580819D01*
X87547619Y-80580819D02*
X87452381Y-80628438D01*
X87452381Y-80628438D02*
X87404762Y-80676057D01*
X87404762Y-80676057D02*
X87309524Y-80818914D01*
X87309524Y-80818914D02*
X87261905Y-81009390D01*
X87261905Y-81009390D02*
X87261905Y-81390342D01*
X87261905Y-81390342D02*
X87309524Y-81485580D01*
X87309524Y-81485580D02*
X87357143Y-81533200D01*
X87357143Y-81533200D02*
X87452381Y-81580819D01*
X87452381Y-81580819D02*
X87642857Y-81580819D01*
X87642857Y-81580819D02*
X87738095Y-81533200D01*
X87738095Y-81533200D02*
X87785714Y-81485580D01*
X87785714Y-81485580D02*
X87833333Y-81390342D01*
X87833333Y-81390342D02*
X87833333Y-81152247D01*
X87833333Y-81152247D02*
X87785714Y-81057009D01*
X87785714Y-81057009D02*
X87738095Y-81009390D01*
X87738095Y-81009390D02*
X87642857Y-80961771D01*
X87642857Y-80961771D02*
X87452381Y-80961771D01*
X87452381Y-80961771D02*
X87357143Y-81009390D01*
X87357143Y-81009390D02*
X87309524Y-81057009D01*
X87309524Y-81057009D02*
X87261905Y-81152247D01*
D13*
%TO.C,SW4*%
X98515000Y-63015000D02*
X112485000Y-63015000D01*
X98515000Y-76985000D02*
X98515000Y-63015000D01*
X112485000Y-63015000D02*
X112485000Y-76985000D01*
X112485000Y-76985000D02*
X98515000Y-76985000D01*
%TO.C,SW5*%
X60515000Y-82015000D02*
X74485000Y-82015000D01*
X60515000Y-95985000D02*
X60515000Y-82015000D01*
X74485000Y-82015000D02*
X74485000Y-95985000D01*
X74485000Y-95985000D02*
X60515000Y-95985000D01*
%TO.C,SW7*%
X98515000Y-101015000D02*
X112485000Y-101015000D01*
X98515000Y-114985000D02*
X98515000Y-101015000D01*
X112485000Y-101015000D02*
X112485000Y-114985000D01*
X112485000Y-114985000D02*
X98515000Y-114985000D01*
%TO.C,SW2*%
X60435000Y-63015000D02*
X74405000Y-63015000D01*
X60435000Y-76985000D02*
X60435000Y-63015000D01*
X74405000Y-63015000D02*
X74405000Y-76985000D01*
X74405000Y-76985000D02*
X60435000Y-76985000D01*
%TO.C,SW10*%
X98515000Y-82015000D02*
X112485000Y-82015000D01*
X98515000Y-95985000D02*
X98515000Y-82015000D01*
X112485000Y-82015000D02*
X112485000Y-95985000D01*
X112485000Y-95985000D02*
X98515000Y-95985000D01*
%TO.C,SW3*%
X79435000Y-63015000D02*
X93405000Y-63015000D01*
X79435000Y-76985000D02*
X79435000Y-63015000D01*
X93405000Y-63015000D02*
X93405000Y-76985000D01*
X93405000Y-76985000D02*
X79435000Y-76985000D01*
D14*
%TO.C,J1*%
X55885000Y-42885000D02*
X55885000Y-54885000D01*
X55885000Y-54885000D02*
X93885000Y-54885000D01*
X60885000Y-54885000D02*
X60885000Y-42885000D01*
X90385000Y-54885000D02*
X90385000Y-42885000D01*
X93885000Y-42885000D02*
X55885000Y-42885000D01*
X93885000Y-54885000D02*
X93885000Y-42885000D01*
D13*
%TO.C,SW8*%
X60435000Y-101015000D02*
X74405000Y-101015000D01*
X60435000Y-114985000D02*
X60435000Y-101015000D01*
X74405000Y-101015000D02*
X74405000Y-114985000D01*
X74405000Y-114985000D02*
X60435000Y-114985000D01*
%TO.C,SW9*%
X79515000Y-101015000D02*
X93485000Y-101015000D01*
X79515000Y-114985000D02*
X79515000Y-101015000D01*
X93485000Y-101015000D02*
X93485000Y-114985000D01*
X93485000Y-114985000D02*
X79515000Y-114985000D01*
D15*
%TO.C,U1*%
X99155000Y-56389000D02*
X99155000Y-39244000D01*
X101060000Y-58294000D02*
X115030000Y-58294000D01*
X103550000Y-37339000D02*
X103553728Y-36428728D01*
X104053728Y-35929000D02*
X112049000Y-35929000D01*
X112549000Y-36429000D02*
X112549000Y-37339000D01*
D10*
X115030000Y-37339000D02*
X101060000Y-37339000D01*
D15*
X115030000Y-37339000D02*
X101060000Y-37339000D01*
X116935000Y-56389000D02*
X116935000Y-39244000D01*
X99155000Y-39244000D02*
G75*
G02*
X101060000Y-37339000I1905001J-1D01*
G01*
X101060000Y-58294000D02*
G75*
G02*
X99155000Y-56389000I1J1905001D01*
G01*
X103553728Y-36428728D02*
G75*
G02*
X104053728Y-35929001I500018J-291D01*
G01*
X112049000Y-35929000D02*
G75*
G02*
X112549000Y-36429000I0J-500000D01*
G01*
X115030000Y-37339000D02*
G75*
G02*
X116935000Y-39244000I0J-1905000D01*
G01*
X116935000Y-56389000D02*
G75*
G02*
X115030000Y-58294000I-1905000J0D01*
G01*
D16*
X99347000Y-37580000D02*
G75*
G02*
X98843000Y-37580000I-252000J0D01*
G01*
X98843000Y-37580000D02*
G75*
G02*
X99347000Y-37580000I252000J0D01*
G01*
X100490000Y-38460000D02*
G75*
G02*
X99986000Y-38460000I-252000J0D01*
G01*
X99986000Y-38460000D02*
G75*
G02*
X100490000Y-38460000I252000J0D01*
G01*
D13*
%TO.C,SW6*%
X79515000Y-82015000D02*
X93485000Y-82015000D01*
X79515000Y-95985000D02*
X79515000Y-82015000D01*
X93485000Y-82015000D02*
X93485000Y-95985000D01*
X93485000Y-95985000D02*
X79515000Y-95985000D01*
%TD*%
M02*
