M48
; DRILL file {KiCad 8.0.8} date 2025-07-13T21:22:09+0100
; FORMAT={-:-/ absolute / inch / decimal}
; #@! TF.CreationDate,2025-07-13T21:22:09+01:00
; #@! TF.GenerationSoftware,Kicad,Pcbnew,8.0.8
; #@! TF.FileFunction,Plated,1,2,PTH
FMAT,2
INCH
; #@! TA.AperFunction,Plated,PTH,ComponentDrill
T1C0.0320
; #@! TA.AperFunction,Plated,PTH,ComponentDrill
T2C0.0350
; #@! TA.AperFunction,Plated,PTH,ComponentDrill
T3C0.0394
; #@! TA.AperFunction,Plated,PTH,ComponentDrill
T4C0.0591
%
G90
G05
T1
X2.2835Y-2.5953
X2.2835Y-2.9953
X2.2835Y-3.3433
X2.2835Y-3.7433
X2.2835Y-4.111
X2.2835Y-4.511
X3.0315Y-2.5953
X3.0315Y-2.9953
X3.0315Y-3.3433
X3.0315Y-3.7433
X3.0315Y-4.111
X3.0315Y-4.511
X3.7795Y-2.5953
X3.7795Y-2.9953
X3.7795Y-3.3433
X3.7795Y-3.7433
X3.7795Y-4.111
X3.7795Y-4.511
T2
X3.9537Y-1.585
X3.9537Y-1.685
X3.9537Y-1.785
X3.9537Y-1.885
X3.9537Y-1.985
X3.9537Y-2.085
X3.9537Y-2.185
X4.5537Y-1.585
X4.5537Y-1.685
X4.5537Y-1.785
X4.5537Y-1.885
X4.5537Y-1.985
X4.5537Y-2.085
X4.5537Y-2.185
T3
X2.2593Y-1.7746
X2.2593Y-1.8746
X2.2593Y-1.9746
X2.2593Y-2.0746
T4
X2.5043Y-2.6559
X2.5043Y-4.152
X2.5075Y-3.4039
X2.7543Y-2.5559
X2.7543Y-4.052
X2.7575Y-3.3039
X3.2524Y-2.6559
X3.2555Y-3.4039
X3.2555Y-4.152
X3.5024Y-2.5559
X3.5055Y-3.3039
X3.5055Y-4.052
X4.0035Y-2.6559
X4.0035Y-3.4039
X4.0035Y-4.152
X4.2535Y-2.5559
X4.2535Y-3.3039
X4.2535Y-4.052
M30
