%TF.GenerationSoftware,KiCad,Pcbnew,8.0.8*%
%TF.CreationDate,2025-07-13T21:22:10+01:00*%
%TF.ProjectId,FlightPad,466c6967-6874-4506-9164-2e6b69636164,rev?*%
%TF.SameCoordinates,Original*%
%TF.FileFunction,Drillmap*%
%TF.FilePolarity,Positive*%
%FSLAX45Y45*%
G04 Gerber Fmt 4.5, Leading zero omitted, Abs format (unit mm)*
G04 Created by KiCad (PCBNEW 8.0.8) date 2025-07-13 21:22:10*
%MOMM*%
%LPD*%
G01*
G04 APERTURE LIST*
%ADD10C,0.050000*%
%ADD11C,0.200000*%
%ADD12C,0.170000*%
%ADD13C,0.400000*%
G04 APERTURE END LIST*
D10*
X11250000Y-3200000D02*
X11250000Y-3550000D01*
X10350000Y-3200000D02*
X6000000Y-3200000D01*
X12200000Y-12000000D02*
X12200000Y-12200000D01*
X12200000Y-12200000D02*
G75*
G02*
X11800000Y-12600000I-400000J0D01*
G01*
X11980278Y-12200000D02*
G75*
G02*
X11619722Y-12200000I-180278J0D01*
G01*
X11619722Y-12200000D02*
G75*
G02*
X11980278Y-12200000I180278J0D01*
G01*
X11700000Y-3200000D02*
X11250000Y-3200000D01*
X12250000Y-3750000D02*
X12200000Y-12000000D01*
X6656155Y-3850000D02*
G75*
G02*
X6243845Y-3850000I-206155J0D01*
G01*
X6243845Y-3850000D02*
G75*
G02*
X6656155Y-3850000I206155J0D01*
G01*
X10350000Y-3550000D02*
X10350000Y-3200000D01*
X5500000Y-12600000D02*
G75*
G02*
X5200000Y-12300000I0J300000D01*
G01*
X5500000Y-12600000D02*
X11800000Y-12600000D01*
X5830278Y-12150000D02*
G75*
G02*
X5469722Y-12150000I-180278J0D01*
G01*
X5469722Y-12150000D02*
G75*
G02*
X5830278Y-12150000I180278J0D01*
G01*
X11700000Y-3200000D02*
G75*
G02*
X12250000Y-3750000I0J-550000D01*
G01*
X11250000Y-3550000D02*
X10350000Y-3550000D01*
X5200000Y-4000000D02*
G75*
G02*
X6000000Y-3200000I800000J0D01*
G01*
X5200000Y-4000000D02*
X5200000Y-12300000D01*
D11*
D12*
X6149000Y-6915000D02*
X6319000Y-7085000D01*
X6319000Y-6915000D02*
X6149000Y-7085000D01*
X6149000Y-10715000D02*
X6319000Y-10885000D01*
X6319000Y-10715000D02*
X6149000Y-10885000D01*
X6157000Y-8815000D02*
X6327000Y-8985000D01*
X6327000Y-8815000D02*
X6157000Y-8985000D01*
X7165000Y-6915000D02*
X7335000Y-7085000D01*
X7335000Y-6915000D02*
X7165000Y-7085000D01*
X7165000Y-10715000D02*
X7335000Y-10885000D01*
X7335000Y-10715000D02*
X7165000Y-10885000D01*
X7173000Y-8815000D02*
X7343000Y-8985000D01*
X7343000Y-8815000D02*
X7173000Y-8985000D01*
X8049000Y-6915000D02*
X8219000Y-7085000D01*
X8219000Y-6915000D02*
X8049000Y-7085000D01*
X8057000Y-8815000D02*
X8227000Y-8985000D01*
X8227000Y-8815000D02*
X8057000Y-8985000D01*
X8057000Y-10715000D02*
X8227000Y-10885000D01*
X8227000Y-10715000D02*
X8057000Y-10885000D01*
X9065000Y-6915000D02*
X9235000Y-7085000D01*
X9235000Y-6915000D02*
X9065000Y-7085000D01*
X9073000Y-8815000D02*
X9243000Y-8985000D01*
X9243000Y-8815000D02*
X9073000Y-8985000D01*
X9073000Y-10715000D02*
X9243000Y-10885000D01*
X9243000Y-10715000D02*
X9073000Y-10885000D01*
X9957000Y-6915000D02*
X10127000Y-7085000D01*
X10127000Y-6915000D02*
X9957000Y-7085000D01*
X9957000Y-8815000D02*
X10127000Y-8985000D01*
X10127000Y-8815000D02*
X9957000Y-8985000D01*
X9957000Y-10715000D02*
X10127000Y-10885000D01*
X10127000Y-10715000D02*
X9957000Y-10885000D01*
X10973000Y-6915000D02*
X11143000Y-7085000D01*
X11143000Y-6915000D02*
X10973000Y-7085000D01*
X10973000Y-8815000D02*
X11143000Y-8985000D01*
X11143000Y-8815000D02*
X10973000Y-8985000D01*
X10973000Y-10715000D02*
X11143000Y-10885000D01*
X11143000Y-10715000D02*
X10973000Y-10885000D01*
D13*
X6942000Y-7000000D02*
G75*
G02*
X6542000Y-7000000I-200000J0D01*
G01*
X6542000Y-7000000D02*
G75*
G02*
X6942000Y-7000000I200000J0D01*
G01*
X6942000Y-10800000D02*
G75*
G02*
X6542000Y-10800000I-200000J0D01*
G01*
X6542000Y-10800000D02*
G75*
G02*
X6942000Y-10800000I200000J0D01*
G01*
X6950000Y-8900000D02*
G75*
G02*
X6550000Y-8900000I-200000J0D01*
G01*
X6550000Y-8900000D02*
G75*
G02*
X6950000Y-8900000I200000J0D01*
G01*
X8842000Y-7000000D02*
G75*
G02*
X8442000Y-7000000I-200000J0D01*
G01*
X8442000Y-7000000D02*
G75*
G02*
X8842000Y-7000000I200000J0D01*
G01*
X8850000Y-8900000D02*
G75*
G02*
X8450000Y-8900000I-200000J0D01*
G01*
X8450000Y-8900000D02*
G75*
G02*
X8850000Y-8900000I200000J0D01*
G01*
X8850000Y-10800000D02*
G75*
G02*
X8450000Y-10800000I-200000J0D01*
G01*
X8450000Y-10800000D02*
G75*
G02*
X8850000Y-10800000I200000J0D01*
G01*
X10750000Y-7000000D02*
G75*
G02*
X10350000Y-7000000I-200000J0D01*
G01*
X10350000Y-7000000D02*
G75*
G02*
X10750000Y-7000000I200000J0D01*
G01*
X10750000Y-8900000D02*
G75*
G02*
X10350000Y-8900000I-200000J0D01*
G01*
X10350000Y-8900000D02*
G75*
G02*
X10750000Y-8900000I200000J0D01*
G01*
X10750000Y-10800000D02*
G75*
G02*
X10350000Y-10800000I-200000J0D01*
G01*
X10350000Y-10800000D02*
G75*
G02*
X10750000Y-10800000I200000J0D01*
G01*
D11*
X5458277Y-12913984D02*
X5458277Y-12713984D01*
X5458277Y-12713984D02*
X5505896Y-12713984D01*
X5505896Y-12713984D02*
X5534467Y-12723508D01*
X5534467Y-12723508D02*
X5553515Y-12742555D01*
X5553515Y-12742555D02*
X5563039Y-12761603D01*
X5563039Y-12761603D02*
X5572563Y-12799698D01*
X5572563Y-12799698D02*
X5572563Y-12828269D01*
X5572563Y-12828269D02*
X5563039Y-12866365D01*
X5563039Y-12866365D02*
X5553515Y-12885412D01*
X5553515Y-12885412D02*
X5534467Y-12904460D01*
X5534467Y-12904460D02*
X5505896Y-12913984D01*
X5505896Y-12913984D02*
X5458277Y-12913984D01*
X5658277Y-12913984D02*
X5658277Y-12780650D01*
X5658277Y-12818746D02*
X5667801Y-12799698D01*
X5667801Y-12799698D02*
X5677324Y-12790174D01*
X5677324Y-12790174D02*
X5696372Y-12780650D01*
X5696372Y-12780650D02*
X5715420Y-12780650D01*
X5782086Y-12913984D02*
X5782086Y-12780650D01*
X5782086Y-12713984D02*
X5772562Y-12723508D01*
X5772562Y-12723508D02*
X5782086Y-12733031D01*
X5782086Y-12733031D02*
X5791610Y-12723508D01*
X5791610Y-12723508D02*
X5782086Y-12713984D01*
X5782086Y-12713984D02*
X5782086Y-12733031D01*
X5905896Y-12913984D02*
X5886848Y-12904460D01*
X5886848Y-12904460D02*
X5877324Y-12885412D01*
X5877324Y-12885412D02*
X5877324Y-12713984D01*
X6010658Y-12913984D02*
X5991610Y-12904460D01*
X5991610Y-12904460D02*
X5982086Y-12885412D01*
X5982086Y-12885412D02*
X5982086Y-12713984D01*
X6239229Y-12913984D02*
X6239229Y-12713984D01*
X6239229Y-12713984D02*
X6305896Y-12856841D01*
X6305896Y-12856841D02*
X6372562Y-12713984D01*
X6372562Y-12713984D02*
X6372562Y-12913984D01*
X6553515Y-12913984D02*
X6553515Y-12809222D01*
X6553515Y-12809222D02*
X6543991Y-12790174D01*
X6543991Y-12790174D02*
X6524943Y-12780650D01*
X6524943Y-12780650D02*
X6486848Y-12780650D01*
X6486848Y-12780650D02*
X6467801Y-12790174D01*
X6553515Y-12904460D02*
X6534467Y-12913984D01*
X6534467Y-12913984D02*
X6486848Y-12913984D01*
X6486848Y-12913984D02*
X6467801Y-12904460D01*
X6467801Y-12904460D02*
X6458277Y-12885412D01*
X6458277Y-12885412D02*
X6458277Y-12866365D01*
X6458277Y-12866365D02*
X6467801Y-12847317D01*
X6467801Y-12847317D02*
X6486848Y-12837793D01*
X6486848Y-12837793D02*
X6534467Y-12837793D01*
X6534467Y-12837793D02*
X6553515Y-12828269D01*
X6648753Y-12780650D02*
X6648753Y-12980650D01*
X6648753Y-12790174D02*
X6667801Y-12780650D01*
X6667801Y-12780650D02*
X6705896Y-12780650D01*
X6705896Y-12780650D02*
X6724943Y-12790174D01*
X6724943Y-12790174D02*
X6734467Y-12799698D01*
X6734467Y-12799698D02*
X6743991Y-12818746D01*
X6743991Y-12818746D02*
X6743991Y-12875888D01*
X6743991Y-12875888D02*
X6734467Y-12894936D01*
X6734467Y-12894936D02*
X6724943Y-12904460D01*
X6724943Y-12904460D02*
X6705896Y-12913984D01*
X6705896Y-12913984D02*
X6667801Y-12913984D01*
X6667801Y-12913984D02*
X6648753Y-12904460D01*
X6829705Y-12894936D02*
X6839229Y-12904460D01*
X6839229Y-12904460D02*
X6829705Y-12913984D01*
X6829705Y-12913984D02*
X6820182Y-12904460D01*
X6820182Y-12904460D02*
X6829705Y-12894936D01*
X6829705Y-12894936D02*
X6829705Y-12913984D01*
X6829705Y-12790174D02*
X6839229Y-12799698D01*
X6839229Y-12799698D02*
X6829705Y-12809222D01*
X6829705Y-12809222D02*
X6820182Y-12799698D01*
X6820182Y-12799698D02*
X6829705Y-12790174D01*
X6829705Y-12790174D02*
X6829705Y-12809222D01*
D12*
X5027500Y-13157500D02*
X5197500Y-13327500D01*
X5197500Y-13157500D02*
X5027500Y-13327500D01*
D11*
X5563039Y-13333984D02*
X5448753Y-13333984D01*
X5505896Y-13333984D02*
X5505896Y-13133984D01*
X5505896Y-13133984D02*
X5486848Y-13162555D01*
X5486848Y-13162555D02*
X5467801Y-13181603D01*
X5467801Y-13181603D02*
X5448753Y-13191127D01*
X5648753Y-13314936D02*
X5658277Y-13324460D01*
X5658277Y-13324460D02*
X5648753Y-13333984D01*
X5648753Y-13333984D02*
X5639229Y-13324460D01*
X5639229Y-13324460D02*
X5648753Y-13314936D01*
X5648753Y-13314936D02*
X5648753Y-13333984D01*
X5724943Y-13133984D02*
X5858277Y-13133984D01*
X5858277Y-13133984D02*
X5772562Y-13333984D01*
X5972562Y-13133984D02*
X5991610Y-13133984D01*
X5991610Y-13133984D02*
X6010658Y-13143508D01*
X6010658Y-13143508D02*
X6020182Y-13153031D01*
X6020182Y-13153031D02*
X6029705Y-13172079D01*
X6029705Y-13172079D02*
X6039229Y-13210174D01*
X6039229Y-13210174D02*
X6039229Y-13257793D01*
X6039229Y-13257793D02*
X6029705Y-13295888D01*
X6029705Y-13295888D02*
X6020182Y-13314936D01*
X6020182Y-13314936D02*
X6010658Y-13324460D01*
X6010658Y-13324460D02*
X5991610Y-13333984D01*
X5991610Y-13333984D02*
X5972562Y-13333984D01*
X5972562Y-13333984D02*
X5953515Y-13324460D01*
X5953515Y-13324460D02*
X5943991Y-13314936D01*
X5943991Y-13314936D02*
X5934467Y-13295888D01*
X5934467Y-13295888D02*
X5924943Y-13257793D01*
X5924943Y-13257793D02*
X5924943Y-13210174D01*
X5924943Y-13210174D02*
X5934467Y-13172079D01*
X5934467Y-13172079D02*
X5943991Y-13153031D01*
X5943991Y-13153031D02*
X5953515Y-13143508D01*
X5953515Y-13143508D02*
X5972562Y-13133984D01*
X6163039Y-13133984D02*
X6182086Y-13133984D01*
X6182086Y-13133984D02*
X6201134Y-13143508D01*
X6201134Y-13143508D02*
X6210658Y-13153031D01*
X6210658Y-13153031D02*
X6220182Y-13172079D01*
X6220182Y-13172079D02*
X6229705Y-13210174D01*
X6229705Y-13210174D02*
X6229705Y-13257793D01*
X6229705Y-13257793D02*
X6220182Y-13295888D01*
X6220182Y-13295888D02*
X6210658Y-13314936D01*
X6210658Y-13314936D02*
X6201134Y-13324460D01*
X6201134Y-13324460D02*
X6182086Y-13333984D01*
X6182086Y-13333984D02*
X6163039Y-13333984D01*
X6163039Y-13333984D02*
X6143991Y-13324460D01*
X6143991Y-13324460D02*
X6134467Y-13314936D01*
X6134467Y-13314936D02*
X6124943Y-13295888D01*
X6124943Y-13295888D02*
X6115420Y-13257793D01*
X6115420Y-13257793D02*
X6115420Y-13210174D01*
X6115420Y-13210174D02*
X6124943Y-13172079D01*
X6124943Y-13172079D02*
X6134467Y-13153031D01*
X6134467Y-13153031D02*
X6143991Y-13143508D01*
X6143991Y-13143508D02*
X6163039Y-13133984D01*
X6315420Y-13333984D02*
X6315420Y-13200650D01*
X6315420Y-13219698D02*
X6324943Y-13210174D01*
X6324943Y-13210174D02*
X6343991Y-13200650D01*
X6343991Y-13200650D02*
X6372563Y-13200650D01*
X6372563Y-13200650D02*
X6391610Y-13210174D01*
X6391610Y-13210174D02*
X6401134Y-13229222D01*
X6401134Y-13229222D02*
X6401134Y-13333984D01*
X6401134Y-13229222D02*
X6410658Y-13210174D01*
X6410658Y-13210174D02*
X6429705Y-13200650D01*
X6429705Y-13200650D02*
X6458277Y-13200650D01*
X6458277Y-13200650D02*
X6477324Y-13210174D01*
X6477324Y-13210174D02*
X6486848Y-13229222D01*
X6486848Y-13229222D02*
X6486848Y-13333984D01*
X6582086Y-13333984D02*
X6582086Y-13200650D01*
X6582086Y-13219698D02*
X6591610Y-13210174D01*
X6591610Y-13210174D02*
X6610658Y-13200650D01*
X6610658Y-13200650D02*
X6639229Y-13200650D01*
X6639229Y-13200650D02*
X6658277Y-13210174D01*
X6658277Y-13210174D02*
X6667801Y-13229222D01*
X6667801Y-13229222D02*
X6667801Y-13333984D01*
X6667801Y-13229222D02*
X6677324Y-13210174D01*
X6677324Y-13210174D02*
X6696372Y-13200650D01*
X6696372Y-13200650D02*
X6724943Y-13200650D01*
X6724943Y-13200650D02*
X6743991Y-13210174D01*
X6743991Y-13210174D02*
X6753515Y-13229222D01*
X6753515Y-13229222D02*
X6753515Y-13333984D01*
X7143991Y-13124460D02*
X6972563Y-13381603D01*
X7401134Y-13133984D02*
X7420182Y-13133984D01*
X7420182Y-13133984D02*
X7439229Y-13143508D01*
X7439229Y-13143508D02*
X7448753Y-13153031D01*
X7448753Y-13153031D02*
X7458277Y-13172079D01*
X7458277Y-13172079D02*
X7467801Y-13210174D01*
X7467801Y-13210174D02*
X7467801Y-13257793D01*
X7467801Y-13257793D02*
X7458277Y-13295888D01*
X7458277Y-13295888D02*
X7448753Y-13314936D01*
X7448753Y-13314936D02*
X7439229Y-13324460D01*
X7439229Y-13324460D02*
X7420182Y-13333984D01*
X7420182Y-13333984D02*
X7401134Y-13333984D01*
X7401134Y-13333984D02*
X7382086Y-13324460D01*
X7382086Y-13324460D02*
X7372563Y-13314936D01*
X7372563Y-13314936D02*
X7363039Y-13295888D01*
X7363039Y-13295888D02*
X7353515Y-13257793D01*
X7353515Y-13257793D02*
X7353515Y-13210174D01*
X7353515Y-13210174D02*
X7363039Y-13172079D01*
X7363039Y-13172079D02*
X7372563Y-13153031D01*
X7372563Y-13153031D02*
X7382086Y-13143508D01*
X7382086Y-13143508D02*
X7401134Y-13133984D01*
X7553515Y-13314936D02*
X7563039Y-13324460D01*
X7563039Y-13324460D02*
X7553515Y-13333984D01*
X7553515Y-13333984D02*
X7543991Y-13324460D01*
X7543991Y-13324460D02*
X7553515Y-13314936D01*
X7553515Y-13314936D02*
X7553515Y-13333984D01*
X7686848Y-13133984D02*
X7705896Y-13133984D01*
X7705896Y-13133984D02*
X7724944Y-13143508D01*
X7724944Y-13143508D02*
X7734467Y-13153031D01*
X7734467Y-13153031D02*
X7743991Y-13172079D01*
X7743991Y-13172079D02*
X7753515Y-13210174D01*
X7753515Y-13210174D02*
X7753515Y-13257793D01*
X7753515Y-13257793D02*
X7743991Y-13295888D01*
X7743991Y-13295888D02*
X7734467Y-13314936D01*
X7734467Y-13314936D02*
X7724944Y-13324460D01*
X7724944Y-13324460D02*
X7705896Y-13333984D01*
X7705896Y-13333984D02*
X7686848Y-13333984D01*
X7686848Y-13333984D02*
X7667801Y-13324460D01*
X7667801Y-13324460D02*
X7658277Y-13314936D01*
X7658277Y-13314936D02*
X7648753Y-13295888D01*
X7648753Y-13295888D02*
X7639229Y-13257793D01*
X7639229Y-13257793D02*
X7639229Y-13210174D01*
X7639229Y-13210174D02*
X7648753Y-13172079D01*
X7648753Y-13172079D02*
X7658277Y-13153031D01*
X7658277Y-13153031D02*
X7667801Y-13143508D01*
X7667801Y-13143508D02*
X7686848Y-13133984D01*
X7924944Y-13133984D02*
X7886848Y-13133984D01*
X7886848Y-13133984D02*
X7867801Y-13143508D01*
X7867801Y-13143508D02*
X7858277Y-13153031D01*
X7858277Y-13153031D02*
X7839229Y-13181603D01*
X7839229Y-13181603D02*
X7829706Y-13219698D01*
X7829706Y-13219698D02*
X7829706Y-13295888D01*
X7829706Y-13295888D02*
X7839229Y-13314936D01*
X7839229Y-13314936D02*
X7848753Y-13324460D01*
X7848753Y-13324460D02*
X7867801Y-13333984D01*
X7867801Y-13333984D02*
X7905896Y-13333984D01*
X7905896Y-13333984D02*
X7924944Y-13324460D01*
X7924944Y-13324460D02*
X7934467Y-13314936D01*
X7934467Y-13314936D02*
X7943991Y-13295888D01*
X7943991Y-13295888D02*
X7943991Y-13248269D01*
X7943991Y-13248269D02*
X7934467Y-13229222D01*
X7934467Y-13229222D02*
X7924944Y-13219698D01*
X7924944Y-13219698D02*
X7905896Y-13210174D01*
X7905896Y-13210174D02*
X7867801Y-13210174D01*
X7867801Y-13210174D02*
X7848753Y-13219698D01*
X7848753Y-13219698D02*
X7839229Y-13229222D01*
X7839229Y-13229222D02*
X7829706Y-13248269D01*
X8115420Y-13133984D02*
X8077325Y-13133984D01*
X8077325Y-13133984D02*
X8058277Y-13143508D01*
X8058277Y-13143508D02*
X8048753Y-13153031D01*
X8048753Y-13153031D02*
X8029706Y-13181603D01*
X8029706Y-13181603D02*
X8020182Y-13219698D01*
X8020182Y-13219698D02*
X8020182Y-13295888D01*
X8020182Y-13295888D02*
X8029706Y-13314936D01*
X8029706Y-13314936D02*
X8039229Y-13324460D01*
X8039229Y-13324460D02*
X8058277Y-13333984D01*
X8058277Y-13333984D02*
X8096372Y-13333984D01*
X8096372Y-13333984D02*
X8115420Y-13324460D01*
X8115420Y-13324460D02*
X8124944Y-13314936D01*
X8124944Y-13314936D02*
X8134467Y-13295888D01*
X8134467Y-13295888D02*
X8134467Y-13248269D01*
X8134467Y-13248269D02*
X8124944Y-13229222D01*
X8124944Y-13229222D02*
X8115420Y-13219698D01*
X8115420Y-13219698D02*
X8096372Y-13210174D01*
X8096372Y-13210174D02*
X8058277Y-13210174D01*
X8058277Y-13210174D02*
X8039229Y-13219698D01*
X8039229Y-13219698D02*
X8029706Y-13229222D01*
X8029706Y-13229222D02*
X8020182Y-13248269D01*
X8229706Y-13333984D02*
X8267801Y-13333984D01*
X8267801Y-13333984D02*
X8286848Y-13324460D01*
X8286848Y-13324460D02*
X8296372Y-13314936D01*
X8296372Y-13314936D02*
X8315420Y-13286365D01*
X8315420Y-13286365D02*
X8324944Y-13248269D01*
X8324944Y-13248269D02*
X8324944Y-13172079D01*
X8324944Y-13172079D02*
X8315420Y-13153031D01*
X8315420Y-13153031D02*
X8305896Y-13143508D01*
X8305896Y-13143508D02*
X8286848Y-13133984D01*
X8286848Y-13133984D02*
X8248753Y-13133984D01*
X8248753Y-13133984D02*
X8229706Y-13143508D01*
X8229706Y-13143508D02*
X8220182Y-13153031D01*
X8220182Y-13153031D02*
X8210658Y-13172079D01*
X8210658Y-13172079D02*
X8210658Y-13219698D01*
X8210658Y-13219698D02*
X8220182Y-13238746D01*
X8220182Y-13238746D02*
X8229706Y-13248269D01*
X8229706Y-13248269D02*
X8248753Y-13257793D01*
X8248753Y-13257793D02*
X8286848Y-13257793D01*
X8286848Y-13257793D02*
X8305896Y-13248269D01*
X8305896Y-13248269D02*
X8315420Y-13238746D01*
X8315420Y-13238746D02*
X8324944Y-13219698D01*
X8401134Y-13133984D02*
X8401134Y-13172079D01*
X8477325Y-13133984D02*
X8477325Y-13172079D01*
X8772563Y-13410174D02*
X8763039Y-13400650D01*
X8763039Y-13400650D02*
X8743991Y-13372079D01*
X8743991Y-13372079D02*
X8734468Y-13353031D01*
X8734468Y-13353031D02*
X8724944Y-13324460D01*
X8724944Y-13324460D02*
X8715420Y-13276841D01*
X8715420Y-13276841D02*
X8715420Y-13238746D01*
X8715420Y-13238746D02*
X8724944Y-13191127D01*
X8724944Y-13191127D02*
X8734468Y-13162555D01*
X8734468Y-13162555D02*
X8743991Y-13143508D01*
X8743991Y-13143508D02*
X8763039Y-13114936D01*
X8763039Y-13114936D02*
X8772563Y-13105412D01*
X8953515Y-13333984D02*
X8839230Y-13333984D01*
X8896372Y-13333984D02*
X8896372Y-13133984D01*
X8896372Y-13133984D02*
X8877325Y-13162555D01*
X8877325Y-13162555D02*
X8858277Y-13181603D01*
X8858277Y-13181603D02*
X8839230Y-13191127D01*
X9067801Y-13219698D02*
X9048753Y-13210174D01*
X9048753Y-13210174D02*
X9039230Y-13200650D01*
X9039230Y-13200650D02*
X9029706Y-13181603D01*
X9029706Y-13181603D02*
X9029706Y-13172079D01*
X9029706Y-13172079D02*
X9039230Y-13153031D01*
X9039230Y-13153031D02*
X9048753Y-13143508D01*
X9048753Y-13143508D02*
X9067801Y-13133984D01*
X9067801Y-13133984D02*
X9105896Y-13133984D01*
X9105896Y-13133984D02*
X9124944Y-13143508D01*
X9124944Y-13143508D02*
X9134468Y-13153031D01*
X9134468Y-13153031D02*
X9143991Y-13172079D01*
X9143991Y-13172079D02*
X9143991Y-13181603D01*
X9143991Y-13181603D02*
X9134468Y-13200650D01*
X9134468Y-13200650D02*
X9124944Y-13210174D01*
X9124944Y-13210174D02*
X9105896Y-13219698D01*
X9105896Y-13219698D02*
X9067801Y-13219698D01*
X9067801Y-13219698D02*
X9048753Y-13229222D01*
X9048753Y-13229222D02*
X9039230Y-13238746D01*
X9039230Y-13238746D02*
X9029706Y-13257793D01*
X9029706Y-13257793D02*
X9029706Y-13295888D01*
X9029706Y-13295888D02*
X9039230Y-13314936D01*
X9039230Y-13314936D02*
X9048753Y-13324460D01*
X9048753Y-13324460D02*
X9067801Y-13333984D01*
X9067801Y-13333984D02*
X9105896Y-13333984D01*
X9105896Y-13333984D02*
X9124944Y-13324460D01*
X9124944Y-13324460D02*
X9134468Y-13314936D01*
X9134468Y-13314936D02*
X9143991Y-13295888D01*
X9143991Y-13295888D02*
X9143991Y-13257793D01*
X9143991Y-13257793D02*
X9134468Y-13238746D01*
X9134468Y-13238746D02*
X9124944Y-13229222D01*
X9124944Y-13229222D02*
X9105896Y-13219698D01*
X9382087Y-13333984D02*
X9382087Y-13133984D01*
X9467801Y-13333984D02*
X9467801Y-13229222D01*
X9467801Y-13229222D02*
X9458277Y-13210174D01*
X9458277Y-13210174D02*
X9439230Y-13200650D01*
X9439230Y-13200650D02*
X9410658Y-13200650D01*
X9410658Y-13200650D02*
X9391611Y-13210174D01*
X9391611Y-13210174D02*
X9382087Y-13219698D01*
X9591611Y-13333984D02*
X9572563Y-13324460D01*
X9572563Y-13324460D02*
X9563039Y-13314936D01*
X9563039Y-13314936D02*
X9553515Y-13295888D01*
X9553515Y-13295888D02*
X9553515Y-13238746D01*
X9553515Y-13238746D02*
X9563039Y-13219698D01*
X9563039Y-13219698D02*
X9572563Y-13210174D01*
X9572563Y-13210174D02*
X9591611Y-13200650D01*
X9591611Y-13200650D02*
X9620182Y-13200650D01*
X9620182Y-13200650D02*
X9639230Y-13210174D01*
X9639230Y-13210174D02*
X9648753Y-13219698D01*
X9648753Y-13219698D02*
X9658277Y-13238746D01*
X9658277Y-13238746D02*
X9658277Y-13295888D01*
X9658277Y-13295888D02*
X9648753Y-13314936D01*
X9648753Y-13314936D02*
X9639230Y-13324460D01*
X9639230Y-13324460D02*
X9620182Y-13333984D01*
X9620182Y-13333984D02*
X9591611Y-13333984D01*
X9772563Y-13333984D02*
X9753515Y-13324460D01*
X9753515Y-13324460D02*
X9743992Y-13305412D01*
X9743992Y-13305412D02*
X9743992Y-13133984D01*
X9924944Y-13324460D02*
X9905896Y-13333984D01*
X9905896Y-13333984D02*
X9867801Y-13333984D01*
X9867801Y-13333984D02*
X9848753Y-13324460D01*
X9848753Y-13324460D02*
X9839230Y-13305412D01*
X9839230Y-13305412D02*
X9839230Y-13229222D01*
X9839230Y-13229222D02*
X9848753Y-13210174D01*
X9848753Y-13210174D02*
X9867801Y-13200650D01*
X9867801Y-13200650D02*
X9905896Y-13200650D01*
X9905896Y-13200650D02*
X9924944Y-13210174D01*
X9924944Y-13210174D02*
X9934468Y-13229222D01*
X9934468Y-13229222D02*
X9934468Y-13248269D01*
X9934468Y-13248269D02*
X9839230Y-13267317D01*
X10010658Y-13324460D02*
X10029706Y-13333984D01*
X10029706Y-13333984D02*
X10067801Y-13333984D01*
X10067801Y-13333984D02*
X10086849Y-13324460D01*
X10086849Y-13324460D02*
X10096373Y-13305412D01*
X10096373Y-13305412D02*
X10096373Y-13295888D01*
X10096373Y-13295888D02*
X10086849Y-13276841D01*
X10086849Y-13276841D02*
X10067801Y-13267317D01*
X10067801Y-13267317D02*
X10039230Y-13267317D01*
X10039230Y-13267317D02*
X10020182Y-13257793D01*
X10020182Y-13257793D02*
X10010658Y-13238746D01*
X10010658Y-13238746D02*
X10010658Y-13229222D01*
X10010658Y-13229222D02*
X10020182Y-13210174D01*
X10020182Y-13210174D02*
X10039230Y-13200650D01*
X10039230Y-13200650D02*
X10067801Y-13200650D01*
X10067801Y-13200650D02*
X10086849Y-13210174D01*
X10163039Y-13410174D02*
X10172563Y-13400650D01*
X10172563Y-13400650D02*
X10191611Y-13372079D01*
X10191611Y-13372079D02*
X10201134Y-13353031D01*
X10201134Y-13353031D02*
X10210658Y-13324460D01*
X10210658Y-13324460D02*
X10220182Y-13276841D01*
X10220182Y-13276841D02*
X10220182Y-13238746D01*
X10220182Y-13238746D02*
X10210658Y-13191127D01*
X10210658Y-13191127D02*
X10201134Y-13162555D01*
X10201134Y-13162555D02*
X10191611Y-13143508D01*
X10191611Y-13143508D02*
X10172563Y-13114936D01*
X10172563Y-13114936D02*
X10163039Y-13105412D01*
X10524944Y-13410174D02*
X10515420Y-13400650D01*
X10515420Y-13400650D02*
X10496373Y-13372079D01*
X10496373Y-13372079D02*
X10486849Y-13353031D01*
X10486849Y-13353031D02*
X10477325Y-13324460D01*
X10477325Y-13324460D02*
X10467801Y-13276841D01*
X10467801Y-13276841D02*
X10467801Y-13238746D01*
X10467801Y-13238746D02*
X10477325Y-13191127D01*
X10477325Y-13191127D02*
X10486849Y-13162555D01*
X10486849Y-13162555D02*
X10496373Y-13143508D01*
X10496373Y-13143508D02*
X10515420Y-13114936D01*
X10515420Y-13114936D02*
X10524944Y-13105412D01*
X10601134Y-13200650D02*
X10601134Y-13333984D01*
X10601134Y-13219698D02*
X10610658Y-13210174D01*
X10610658Y-13210174D02*
X10629706Y-13200650D01*
X10629706Y-13200650D02*
X10658277Y-13200650D01*
X10658277Y-13200650D02*
X10677325Y-13210174D01*
X10677325Y-13210174D02*
X10686849Y-13229222D01*
X10686849Y-13229222D02*
X10686849Y-13333984D01*
X10810658Y-13333984D02*
X10791611Y-13324460D01*
X10791611Y-13324460D02*
X10782087Y-13314936D01*
X10782087Y-13314936D02*
X10772563Y-13295888D01*
X10772563Y-13295888D02*
X10772563Y-13238746D01*
X10772563Y-13238746D02*
X10782087Y-13219698D01*
X10782087Y-13219698D02*
X10791611Y-13210174D01*
X10791611Y-13210174D02*
X10810658Y-13200650D01*
X10810658Y-13200650D02*
X10839230Y-13200650D01*
X10839230Y-13200650D02*
X10858277Y-13210174D01*
X10858277Y-13210174D02*
X10867801Y-13219698D01*
X10867801Y-13219698D02*
X10877325Y-13238746D01*
X10877325Y-13238746D02*
X10877325Y-13295888D01*
X10877325Y-13295888D02*
X10867801Y-13314936D01*
X10867801Y-13314936D02*
X10858277Y-13324460D01*
X10858277Y-13324460D02*
X10839230Y-13333984D01*
X10839230Y-13333984D02*
X10810658Y-13333984D01*
X10934468Y-13200650D02*
X11010658Y-13200650D01*
X10963039Y-13133984D02*
X10963039Y-13305412D01*
X10963039Y-13305412D02*
X10972563Y-13324460D01*
X10972563Y-13324460D02*
X10991611Y-13333984D01*
X10991611Y-13333984D02*
X11010658Y-13333984D01*
X11229706Y-13200650D02*
X11229706Y-13400650D01*
X11229706Y-13210174D02*
X11248753Y-13200650D01*
X11248753Y-13200650D02*
X11286849Y-13200650D01*
X11286849Y-13200650D02*
X11305896Y-13210174D01*
X11305896Y-13210174D02*
X11315420Y-13219698D01*
X11315420Y-13219698D02*
X11324944Y-13238746D01*
X11324944Y-13238746D02*
X11324944Y-13295888D01*
X11324944Y-13295888D02*
X11315420Y-13314936D01*
X11315420Y-13314936D02*
X11305896Y-13324460D01*
X11305896Y-13324460D02*
X11286849Y-13333984D01*
X11286849Y-13333984D02*
X11248753Y-13333984D01*
X11248753Y-13333984D02*
X11229706Y-13324460D01*
X11439230Y-13333984D02*
X11420182Y-13324460D01*
X11420182Y-13324460D02*
X11410658Y-13305412D01*
X11410658Y-13305412D02*
X11410658Y-13133984D01*
X11601134Y-13333984D02*
X11601134Y-13229222D01*
X11601134Y-13229222D02*
X11591611Y-13210174D01*
X11591611Y-13210174D02*
X11572563Y-13200650D01*
X11572563Y-13200650D02*
X11534468Y-13200650D01*
X11534468Y-13200650D02*
X11515420Y-13210174D01*
X11601134Y-13324460D02*
X11582087Y-13333984D01*
X11582087Y-13333984D02*
X11534468Y-13333984D01*
X11534468Y-13333984D02*
X11515420Y-13324460D01*
X11515420Y-13324460D02*
X11505896Y-13305412D01*
X11505896Y-13305412D02*
X11505896Y-13286365D01*
X11505896Y-13286365D02*
X11515420Y-13267317D01*
X11515420Y-13267317D02*
X11534468Y-13257793D01*
X11534468Y-13257793D02*
X11582087Y-13257793D01*
X11582087Y-13257793D02*
X11601134Y-13248269D01*
X11667801Y-13200650D02*
X11743992Y-13200650D01*
X11696373Y-13133984D02*
X11696373Y-13305412D01*
X11696373Y-13305412D02*
X11705896Y-13324460D01*
X11705896Y-13324460D02*
X11724944Y-13333984D01*
X11724944Y-13333984D02*
X11743992Y-13333984D01*
X11886849Y-13324460D02*
X11867801Y-13333984D01*
X11867801Y-13333984D02*
X11829706Y-13333984D01*
X11829706Y-13333984D02*
X11810658Y-13324460D01*
X11810658Y-13324460D02*
X11801134Y-13305412D01*
X11801134Y-13305412D02*
X11801134Y-13229222D01*
X11801134Y-13229222D02*
X11810658Y-13210174D01*
X11810658Y-13210174D02*
X11829706Y-13200650D01*
X11829706Y-13200650D02*
X11867801Y-13200650D01*
X11867801Y-13200650D02*
X11886849Y-13210174D01*
X11886849Y-13210174D02*
X11896373Y-13229222D01*
X11896373Y-13229222D02*
X11896373Y-13248269D01*
X11896373Y-13248269D02*
X11801134Y-13267317D01*
X12067801Y-13333984D02*
X12067801Y-13133984D01*
X12067801Y-13324460D02*
X12048754Y-13333984D01*
X12048754Y-13333984D02*
X12010658Y-13333984D01*
X12010658Y-13333984D02*
X11991611Y-13324460D01*
X11991611Y-13324460D02*
X11982087Y-13314936D01*
X11982087Y-13314936D02*
X11972563Y-13295888D01*
X11972563Y-13295888D02*
X11972563Y-13238746D01*
X11972563Y-13238746D02*
X11982087Y-13219698D01*
X11982087Y-13219698D02*
X11991611Y-13210174D01*
X11991611Y-13210174D02*
X12010658Y-13200650D01*
X12010658Y-13200650D02*
X12048754Y-13200650D01*
X12048754Y-13200650D02*
X12067801Y-13210174D01*
X12143992Y-13410174D02*
X12153515Y-13400650D01*
X12153515Y-13400650D02*
X12172563Y-13372079D01*
X12172563Y-13372079D02*
X12182087Y-13353031D01*
X12182087Y-13353031D02*
X12191611Y-13324460D01*
X12191611Y-13324460D02*
X12201134Y-13276841D01*
X12201134Y-13276841D02*
X12201134Y-13238746D01*
X12201134Y-13238746D02*
X12191611Y-13191127D01*
X12191611Y-13191127D02*
X12182087Y-13162555D01*
X12182087Y-13162555D02*
X12172563Y-13143508D01*
X12172563Y-13143508D02*
X12153515Y-13114936D01*
X12153515Y-13114936D02*
X12143992Y-13105412D01*
X5197500Y-13532500D02*
G75*
G02*
X4997500Y-13532500I-100000J0D01*
G01*
X4997500Y-13532500D02*
G75*
G02*
X5197500Y-13532500I100000J0D01*
G01*
X5543991Y-13490650D02*
X5543991Y-13623984D01*
X5496372Y-13414460D02*
X5448753Y-13557317D01*
X5448753Y-13557317D02*
X5572563Y-13557317D01*
X5648753Y-13604936D02*
X5658277Y-13614460D01*
X5658277Y-13614460D02*
X5648753Y-13623984D01*
X5648753Y-13623984D02*
X5639229Y-13614460D01*
X5639229Y-13614460D02*
X5648753Y-13604936D01*
X5648753Y-13604936D02*
X5648753Y-13623984D01*
X5782086Y-13423984D02*
X5801134Y-13423984D01*
X5801134Y-13423984D02*
X5820182Y-13433508D01*
X5820182Y-13433508D02*
X5829705Y-13443031D01*
X5829705Y-13443031D02*
X5839229Y-13462079D01*
X5839229Y-13462079D02*
X5848753Y-13500174D01*
X5848753Y-13500174D02*
X5848753Y-13547793D01*
X5848753Y-13547793D02*
X5839229Y-13585888D01*
X5839229Y-13585888D02*
X5829705Y-13604936D01*
X5829705Y-13604936D02*
X5820182Y-13614460D01*
X5820182Y-13614460D02*
X5801134Y-13623984D01*
X5801134Y-13623984D02*
X5782086Y-13623984D01*
X5782086Y-13623984D02*
X5763039Y-13614460D01*
X5763039Y-13614460D02*
X5753515Y-13604936D01*
X5753515Y-13604936D02*
X5743991Y-13585888D01*
X5743991Y-13585888D02*
X5734467Y-13547793D01*
X5734467Y-13547793D02*
X5734467Y-13500174D01*
X5734467Y-13500174D02*
X5743991Y-13462079D01*
X5743991Y-13462079D02*
X5753515Y-13443031D01*
X5753515Y-13443031D02*
X5763039Y-13433508D01*
X5763039Y-13433508D02*
X5782086Y-13423984D01*
X5972562Y-13423984D02*
X5991610Y-13423984D01*
X5991610Y-13423984D02*
X6010658Y-13433508D01*
X6010658Y-13433508D02*
X6020182Y-13443031D01*
X6020182Y-13443031D02*
X6029705Y-13462079D01*
X6029705Y-13462079D02*
X6039229Y-13500174D01*
X6039229Y-13500174D02*
X6039229Y-13547793D01*
X6039229Y-13547793D02*
X6029705Y-13585888D01*
X6029705Y-13585888D02*
X6020182Y-13604936D01*
X6020182Y-13604936D02*
X6010658Y-13614460D01*
X6010658Y-13614460D02*
X5991610Y-13623984D01*
X5991610Y-13623984D02*
X5972562Y-13623984D01*
X5972562Y-13623984D02*
X5953515Y-13614460D01*
X5953515Y-13614460D02*
X5943991Y-13604936D01*
X5943991Y-13604936D02*
X5934467Y-13585888D01*
X5934467Y-13585888D02*
X5924943Y-13547793D01*
X5924943Y-13547793D02*
X5924943Y-13500174D01*
X5924943Y-13500174D02*
X5934467Y-13462079D01*
X5934467Y-13462079D02*
X5943991Y-13443031D01*
X5943991Y-13443031D02*
X5953515Y-13433508D01*
X5953515Y-13433508D02*
X5972562Y-13423984D01*
X6163039Y-13423984D02*
X6182086Y-13423984D01*
X6182086Y-13423984D02*
X6201134Y-13433508D01*
X6201134Y-13433508D02*
X6210658Y-13443031D01*
X6210658Y-13443031D02*
X6220182Y-13462079D01*
X6220182Y-13462079D02*
X6229705Y-13500174D01*
X6229705Y-13500174D02*
X6229705Y-13547793D01*
X6229705Y-13547793D02*
X6220182Y-13585888D01*
X6220182Y-13585888D02*
X6210658Y-13604936D01*
X6210658Y-13604936D02*
X6201134Y-13614460D01*
X6201134Y-13614460D02*
X6182086Y-13623984D01*
X6182086Y-13623984D02*
X6163039Y-13623984D01*
X6163039Y-13623984D02*
X6143991Y-13614460D01*
X6143991Y-13614460D02*
X6134467Y-13604936D01*
X6134467Y-13604936D02*
X6124943Y-13585888D01*
X6124943Y-13585888D02*
X6115420Y-13547793D01*
X6115420Y-13547793D02*
X6115420Y-13500174D01*
X6115420Y-13500174D02*
X6124943Y-13462079D01*
X6124943Y-13462079D02*
X6134467Y-13443031D01*
X6134467Y-13443031D02*
X6143991Y-13433508D01*
X6143991Y-13433508D02*
X6163039Y-13423984D01*
X6315420Y-13623984D02*
X6315420Y-13490650D01*
X6315420Y-13509698D02*
X6324943Y-13500174D01*
X6324943Y-13500174D02*
X6343991Y-13490650D01*
X6343991Y-13490650D02*
X6372563Y-13490650D01*
X6372563Y-13490650D02*
X6391610Y-13500174D01*
X6391610Y-13500174D02*
X6401134Y-13519222D01*
X6401134Y-13519222D02*
X6401134Y-13623984D01*
X6401134Y-13519222D02*
X6410658Y-13500174D01*
X6410658Y-13500174D02*
X6429705Y-13490650D01*
X6429705Y-13490650D02*
X6458277Y-13490650D01*
X6458277Y-13490650D02*
X6477324Y-13500174D01*
X6477324Y-13500174D02*
X6486848Y-13519222D01*
X6486848Y-13519222D02*
X6486848Y-13623984D01*
X6582086Y-13623984D02*
X6582086Y-13490650D01*
X6582086Y-13509698D02*
X6591610Y-13500174D01*
X6591610Y-13500174D02*
X6610658Y-13490650D01*
X6610658Y-13490650D02*
X6639229Y-13490650D01*
X6639229Y-13490650D02*
X6658277Y-13500174D01*
X6658277Y-13500174D02*
X6667801Y-13519222D01*
X6667801Y-13519222D02*
X6667801Y-13623984D01*
X6667801Y-13519222D02*
X6677324Y-13500174D01*
X6677324Y-13500174D02*
X6696372Y-13490650D01*
X6696372Y-13490650D02*
X6724943Y-13490650D01*
X6724943Y-13490650D02*
X6743991Y-13500174D01*
X6743991Y-13500174D02*
X6753515Y-13519222D01*
X6753515Y-13519222D02*
X6753515Y-13623984D01*
X7143991Y-13414460D02*
X6972563Y-13671603D01*
X7401134Y-13423984D02*
X7420182Y-13423984D01*
X7420182Y-13423984D02*
X7439229Y-13433508D01*
X7439229Y-13433508D02*
X7448753Y-13443031D01*
X7448753Y-13443031D02*
X7458277Y-13462079D01*
X7458277Y-13462079D02*
X7467801Y-13500174D01*
X7467801Y-13500174D02*
X7467801Y-13547793D01*
X7467801Y-13547793D02*
X7458277Y-13585888D01*
X7458277Y-13585888D02*
X7448753Y-13604936D01*
X7448753Y-13604936D02*
X7439229Y-13614460D01*
X7439229Y-13614460D02*
X7420182Y-13623984D01*
X7420182Y-13623984D02*
X7401134Y-13623984D01*
X7401134Y-13623984D02*
X7382086Y-13614460D01*
X7382086Y-13614460D02*
X7372563Y-13604936D01*
X7372563Y-13604936D02*
X7363039Y-13585888D01*
X7363039Y-13585888D02*
X7353515Y-13547793D01*
X7353515Y-13547793D02*
X7353515Y-13500174D01*
X7353515Y-13500174D02*
X7363039Y-13462079D01*
X7363039Y-13462079D02*
X7372563Y-13443031D01*
X7372563Y-13443031D02*
X7382086Y-13433508D01*
X7382086Y-13433508D02*
X7401134Y-13423984D01*
X7553515Y-13604936D02*
X7563039Y-13614460D01*
X7563039Y-13614460D02*
X7553515Y-13623984D01*
X7553515Y-13623984D02*
X7543991Y-13614460D01*
X7543991Y-13614460D02*
X7553515Y-13604936D01*
X7553515Y-13604936D02*
X7553515Y-13623984D01*
X7753515Y-13623984D02*
X7639229Y-13623984D01*
X7696372Y-13623984D02*
X7696372Y-13423984D01*
X7696372Y-13423984D02*
X7677325Y-13452555D01*
X7677325Y-13452555D02*
X7658277Y-13471603D01*
X7658277Y-13471603D02*
X7639229Y-13481127D01*
X7934467Y-13423984D02*
X7839229Y-13423984D01*
X7839229Y-13423984D02*
X7829706Y-13519222D01*
X7829706Y-13519222D02*
X7839229Y-13509698D01*
X7839229Y-13509698D02*
X7858277Y-13500174D01*
X7858277Y-13500174D02*
X7905896Y-13500174D01*
X7905896Y-13500174D02*
X7924944Y-13509698D01*
X7924944Y-13509698D02*
X7934467Y-13519222D01*
X7934467Y-13519222D02*
X7943991Y-13538269D01*
X7943991Y-13538269D02*
X7943991Y-13585888D01*
X7943991Y-13585888D02*
X7934467Y-13604936D01*
X7934467Y-13604936D02*
X7924944Y-13614460D01*
X7924944Y-13614460D02*
X7905896Y-13623984D01*
X7905896Y-13623984D02*
X7858277Y-13623984D01*
X7858277Y-13623984D02*
X7839229Y-13614460D01*
X7839229Y-13614460D02*
X7829706Y-13604936D01*
X8010658Y-13423984D02*
X8143991Y-13423984D01*
X8143991Y-13423984D02*
X8058277Y-13623984D01*
X8315420Y-13423984D02*
X8220182Y-13423984D01*
X8220182Y-13423984D02*
X8210658Y-13519222D01*
X8210658Y-13519222D02*
X8220182Y-13509698D01*
X8220182Y-13509698D02*
X8239229Y-13500174D01*
X8239229Y-13500174D02*
X8286848Y-13500174D01*
X8286848Y-13500174D02*
X8305896Y-13509698D01*
X8305896Y-13509698D02*
X8315420Y-13519222D01*
X8315420Y-13519222D02*
X8324944Y-13538269D01*
X8324944Y-13538269D02*
X8324944Y-13585888D01*
X8324944Y-13585888D02*
X8315420Y-13604936D01*
X8315420Y-13604936D02*
X8305896Y-13614460D01*
X8305896Y-13614460D02*
X8286848Y-13623984D01*
X8286848Y-13623984D02*
X8239229Y-13623984D01*
X8239229Y-13623984D02*
X8220182Y-13614460D01*
X8220182Y-13614460D02*
X8210658Y-13604936D01*
X8401134Y-13423984D02*
X8401134Y-13462079D01*
X8477325Y-13423984D02*
X8477325Y-13462079D01*
X8772563Y-13700174D02*
X8763039Y-13690650D01*
X8763039Y-13690650D02*
X8743991Y-13662079D01*
X8743991Y-13662079D02*
X8734468Y-13643031D01*
X8734468Y-13643031D02*
X8724944Y-13614460D01*
X8724944Y-13614460D02*
X8715420Y-13566841D01*
X8715420Y-13566841D02*
X8715420Y-13528746D01*
X8715420Y-13528746D02*
X8724944Y-13481127D01*
X8724944Y-13481127D02*
X8734468Y-13452555D01*
X8734468Y-13452555D02*
X8743991Y-13433508D01*
X8743991Y-13433508D02*
X8763039Y-13404936D01*
X8763039Y-13404936D02*
X8772563Y-13395412D01*
X8858277Y-13623984D02*
X8896372Y-13623984D01*
X8896372Y-13623984D02*
X8915420Y-13614460D01*
X8915420Y-13614460D02*
X8924944Y-13604936D01*
X8924944Y-13604936D02*
X8943991Y-13576365D01*
X8943991Y-13576365D02*
X8953515Y-13538269D01*
X8953515Y-13538269D02*
X8953515Y-13462079D01*
X8953515Y-13462079D02*
X8943991Y-13443031D01*
X8943991Y-13443031D02*
X8934468Y-13433508D01*
X8934468Y-13433508D02*
X8915420Y-13423984D01*
X8915420Y-13423984D02*
X8877325Y-13423984D01*
X8877325Y-13423984D02*
X8858277Y-13433508D01*
X8858277Y-13433508D02*
X8848753Y-13443031D01*
X8848753Y-13443031D02*
X8839230Y-13462079D01*
X8839230Y-13462079D02*
X8839230Y-13509698D01*
X8839230Y-13509698D02*
X8848753Y-13528746D01*
X8848753Y-13528746D02*
X8858277Y-13538269D01*
X8858277Y-13538269D02*
X8877325Y-13547793D01*
X8877325Y-13547793D02*
X8915420Y-13547793D01*
X8915420Y-13547793D02*
X8934468Y-13538269D01*
X8934468Y-13538269D02*
X8943991Y-13528746D01*
X8943991Y-13528746D02*
X8953515Y-13509698D01*
X9191611Y-13623984D02*
X9191611Y-13423984D01*
X9277325Y-13623984D02*
X9277325Y-13519222D01*
X9277325Y-13519222D02*
X9267801Y-13500174D01*
X9267801Y-13500174D02*
X9248753Y-13490650D01*
X9248753Y-13490650D02*
X9220182Y-13490650D01*
X9220182Y-13490650D02*
X9201134Y-13500174D01*
X9201134Y-13500174D02*
X9191611Y-13509698D01*
X9401134Y-13623984D02*
X9382087Y-13614460D01*
X9382087Y-13614460D02*
X9372563Y-13604936D01*
X9372563Y-13604936D02*
X9363039Y-13585888D01*
X9363039Y-13585888D02*
X9363039Y-13528746D01*
X9363039Y-13528746D02*
X9372563Y-13509698D01*
X9372563Y-13509698D02*
X9382087Y-13500174D01*
X9382087Y-13500174D02*
X9401134Y-13490650D01*
X9401134Y-13490650D02*
X9429706Y-13490650D01*
X9429706Y-13490650D02*
X9448753Y-13500174D01*
X9448753Y-13500174D02*
X9458277Y-13509698D01*
X9458277Y-13509698D02*
X9467801Y-13528746D01*
X9467801Y-13528746D02*
X9467801Y-13585888D01*
X9467801Y-13585888D02*
X9458277Y-13604936D01*
X9458277Y-13604936D02*
X9448753Y-13614460D01*
X9448753Y-13614460D02*
X9429706Y-13623984D01*
X9429706Y-13623984D02*
X9401134Y-13623984D01*
X9582087Y-13623984D02*
X9563039Y-13614460D01*
X9563039Y-13614460D02*
X9553515Y-13595412D01*
X9553515Y-13595412D02*
X9553515Y-13423984D01*
X9734468Y-13614460D02*
X9715420Y-13623984D01*
X9715420Y-13623984D02*
X9677325Y-13623984D01*
X9677325Y-13623984D02*
X9658277Y-13614460D01*
X9658277Y-13614460D02*
X9648753Y-13595412D01*
X9648753Y-13595412D02*
X9648753Y-13519222D01*
X9648753Y-13519222D02*
X9658277Y-13500174D01*
X9658277Y-13500174D02*
X9677325Y-13490650D01*
X9677325Y-13490650D02*
X9715420Y-13490650D01*
X9715420Y-13490650D02*
X9734468Y-13500174D01*
X9734468Y-13500174D02*
X9743992Y-13519222D01*
X9743992Y-13519222D02*
X9743992Y-13538269D01*
X9743992Y-13538269D02*
X9648753Y-13557317D01*
X9820182Y-13614460D02*
X9839230Y-13623984D01*
X9839230Y-13623984D02*
X9877325Y-13623984D01*
X9877325Y-13623984D02*
X9896373Y-13614460D01*
X9896373Y-13614460D02*
X9905896Y-13595412D01*
X9905896Y-13595412D02*
X9905896Y-13585888D01*
X9905896Y-13585888D02*
X9896373Y-13566841D01*
X9896373Y-13566841D02*
X9877325Y-13557317D01*
X9877325Y-13557317D02*
X9848753Y-13557317D01*
X9848753Y-13557317D02*
X9829706Y-13547793D01*
X9829706Y-13547793D02*
X9820182Y-13528746D01*
X9820182Y-13528746D02*
X9820182Y-13519222D01*
X9820182Y-13519222D02*
X9829706Y-13500174D01*
X9829706Y-13500174D02*
X9848753Y-13490650D01*
X9848753Y-13490650D02*
X9877325Y-13490650D01*
X9877325Y-13490650D02*
X9896373Y-13500174D01*
X9972563Y-13700174D02*
X9982087Y-13690650D01*
X9982087Y-13690650D02*
X10001134Y-13662079D01*
X10001134Y-13662079D02*
X10010658Y-13643031D01*
X10010658Y-13643031D02*
X10020182Y-13614460D01*
X10020182Y-13614460D02*
X10029706Y-13566841D01*
X10029706Y-13566841D02*
X10029706Y-13528746D01*
X10029706Y-13528746D02*
X10020182Y-13481127D01*
X10020182Y-13481127D02*
X10010658Y-13452555D01*
X10010658Y-13452555D02*
X10001134Y-13433508D01*
X10001134Y-13433508D02*
X9982087Y-13404936D01*
X9982087Y-13404936D02*
X9972563Y-13395412D01*
X10334468Y-13700174D02*
X10324944Y-13690650D01*
X10324944Y-13690650D02*
X10305896Y-13662079D01*
X10305896Y-13662079D02*
X10296373Y-13643031D01*
X10296373Y-13643031D02*
X10286849Y-13614460D01*
X10286849Y-13614460D02*
X10277325Y-13566841D01*
X10277325Y-13566841D02*
X10277325Y-13528746D01*
X10277325Y-13528746D02*
X10286849Y-13481127D01*
X10286849Y-13481127D02*
X10296373Y-13452555D01*
X10296373Y-13452555D02*
X10305896Y-13433508D01*
X10305896Y-13433508D02*
X10324944Y-13404936D01*
X10324944Y-13404936D02*
X10334468Y-13395412D01*
X10410658Y-13490650D02*
X10410658Y-13623984D01*
X10410658Y-13509698D02*
X10420182Y-13500174D01*
X10420182Y-13500174D02*
X10439230Y-13490650D01*
X10439230Y-13490650D02*
X10467801Y-13490650D01*
X10467801Y-13490650D02*
X10486849Y-13500174D01*
X10486849Y-13500174D02*
X10496373Y-13519222D01*
X10496373Y-13519222D02*
X10496373Y-13623984D01*
X10620182Y-13623984D02*
X10601134Y-13614460D01*
X10601134Y-13614460D02*
X10591611Y-13604936D01*
X10591611Y-13604936D02*
X10582087Y-13585888D01*
X10582087Y-13585888D02*
X10582087Y-13528746D01*
X10582087Y-13528746D02*
X10591611Y-13509698D01*
X10591611Y-13509698D02*
X10601134Y-13500174D01*
X10601134Y-13500174D02*
X10620182Y-13490650D01*
X10620182Y-13490650D02*
X10648754Y-13490650D01*
X10648754Y-13490650D02*
X10667801Y-13500174D01*
X10667801Y-13500174D02*
X10677325Y-13509698D01*
X10677325Y-13509698D02*
X10686849Y-13528746D01*
X10686849Y-13528746D02*
X10686849Y-13585888D01*
X10686849Y-13585888D02*
X10677325Y-13604936D01*
X10677325Y-13604936D02*
X10667801Y-13614460D01*
X10667801Y-13614460D02*
X10648754Y-13623984D01*
X10648754Y-13623984D02*
X10620182Y-13623984D01*
X10743992Y-13490650D02*
X10820182Y-13490650D01*
X10772563Y-13423984D02*
X10772563Y-13595412D01*
X10772563Y-13595412D02*
X10782087Y-13614460D01*
X10782087Y-13614460D02*
X10801134Y-13623984D01*
X10801134Y-13623984D02*
X10820182Y-13623984D01*
X11039230Y-13490650D02*
X11039230Y-13690650D01*
X11039230Y-13500174D02*
X11058277Y-13490650D01*
X11058277Y-13490650D02*
X11096373Y-13490650D01*
X11096373Y-13490650D02*
X11115420Y-13500174D01*
X11115420Y-13500174D02*
X11124944Y-13509698D01*
X11124944Y-13509698D02*
X11134468Y-13528746D01*
X11134468Y-13528746D02*
X11134468Y-13585888D01*
X11134468Y-13585888D02*
X11124944Y-13604936D01*
X11124944Y-13604936D02*
X11115420Y-13614460D01*
X11115420Y-13614460D02*
X11096373Y-13623984D01*
X11096373Y-13623984D02*
X11058277Y-13623984D01*
X11058277Y-13623984D02*
X11039230Y-13614460D01*
X11248753Y-13623984D02*
X11229706Y-13614460D01*
X11229706Y-13614460D02*
X11220182Y-13595412D01*
X11220182Y-13595412D02*
X11220182Y-13423984D01*
X11410658Y-13623984D02*
X11410658Y-13519222D01*
X11410658Y-13519222D02*
X11401134Y-13500174D01*
X11401134Y-13500174D02*
X11382087Y-13490650D01*
X11382087Y-13490650D02*
X11343992Y-13490650D01*
X11343992Y-13490650D02*
X11324944Y-13500174D01*
X11410658Y-13614460D02*
X11391611Y-13623984D01*
X11391611Y-13623984D02*
X11343992Y-13623984D01*
X11343992Y-13623984D02*
X11324944Y-13614460D01*
X11324944Y-13614460D02*
X11315420Y-13595412D01*
X11315420Y-13595412D02*
X11315420Y-13576365D01*
X11315420Y-13576365D02*
X11324944Y-13557317D01*
X11324944Y-13557317D02*
X11343992Y-13547793D01*
X11343992Y-13547793D02*
X11391611Y-13547793D01*
X11391611Y-13547793D02*
X11410658Y-13538269D01*
X11477325Y-13490650D02*
X11553515Y-13490650D01*
X11505896Y-13423984D02*
X11505896Y-13595412D01*
X11505896Y-13595412D02*
X11515420Y-13614460D01*
X11515420Y-13614460D02*
X11534468Y-13623984D01*
X11534468Y-13623984D02*
X11553515Y-13623984D01*
X11696373Y-13614460D02*
X11677325Y-13623984D01*
X11677325Y-13623984D02*
X11639230Y-13623984D01*
X11639230Y-13623984D02*
X11620182Y-13614460D01*
X11620182Y-13614460D02*
X11610658Y-13595412D01*
X11610658Y-13595412D02*
X11610658Y-13519222D01*
X11610658Y-13519222D02*
X11620182Y-13500174D01*
X11620182Y-13500174D02*
X11639230Y-13490650D01*
X11639230Y-13490650D02*
X11677325Y-13490650D01*
X11677325Y-13490650D02*
X11696373Y-13500174D01*
X11696373Y-13500174D02*
X11705896Y-13519222D01*
X11705896Y-13519222D02*
X11705896Y-13538269D01*
X11705896Y-13538269D02*
X11610658Y-13557317D01*
X11877325Y-13623984D02*
X11877325Y-13423984D01*
X11877325Y-13614460D02*
X11858277Y-13623984D01*
X11858277Y-13623984D02*
X11820182Y-13623984D01*
X11820182Y-13623984D02*
X11801134Y-13614460D01*
X11801134Y-13614460D02*
X11791611Y-13604936D01*
X11791611Y-13604936D02*
X11782087Y-13585888D01*
X11782087Y-13585888D02*
X11782087Y-13528746D01*
X11782087Y-13528746D02*
X11791611Y-13509698D01*
X11791611Y-13509698D02*
X11801134Y-13500174D01*
X11801134Y-13500174D02*
X11820182Y-13490650D01*
X11820182Y-13490650D02*
X11858277Y-13490650D01*
X11858277Y-13490650D02*
X11877325Y-13500174D01*
X11953515Y-13700174D02*
X11963039Y-13690650D01*
X11963039Y-13690650D02*
X11982087Y-13662079D01*
X11982087Y-13662079D02*
X11991611Y-13643031D01*
X11991611Y-13643031D02*
X12001134Y-13614460D01*
X12001134Y-13614460D02*
X12010658Y-13566841D01*
X12010658Y-13566841D02*
X12010658Y-13528746D01*
X12010658Y-13528746D02*
X12001134Y-13481127D01*
X12001134Y-13481127D02*
X11991611Y-13452555D01*
X11991611Y-13452555D02*
X11982087Y-13433508D01*
X11982087Y-13433508D02*
X11963039Y-13404936D01*
X11963039Y-13404936D02*
X11953515Y-13395412D01*
M02*
