M48
; DRILL file {KiCad 8.0.8} date 2025-07-13T21:22:09+0100
; FORMAT={-:-/ absolute / inch / decimal}
; #@! TF.CreationDate,2025-07-13T21:22:09+01:00
; #@! TF.GenerationSoftware,Kicad,Pcbnew,8.0.8
; #@! TF.FileFunction,NonPlated,1,2,NPTH
FMAT,2
INCH
; #@! TA.AperFunction,NonPlated,NPTH,ComponentDrill
T1C0.0669
; #@! TA.AperFunction,NonPlated,NPTH,ComponentDrill
T2C0.1575
%
G90
G05
T1
X2.4543Y-2.7559
X2.4543Y-4.252
X2.4575Y-3.5039
X2.8543Y-2.7559
X2.8543Y-4.252
X2.8575Y-3.5039
X3.2024Y-2.7559
X3.2055Y-3.5039
X3.2055Y-4.252
X3.6024Y-2.7559
X3.6055Y-3.5039
X3.6055Y-4.252
X3.9535Y-2.7559
X3.9535Y-3.5039
X3.9535Y-4.252
X4.3535Y-2.7559
X4.3535Y-3.5039
X4.3535Y-4.252
T2
X2.6543Y-2.7559
X2.6543Y-4.252
X2.6575Y-3.5039
X3.4024Y-2.7559
X3.4055Y-3.5039
X3.4055Y-4.252
X4.1535Y-2.7559
X4.1535Y-3.5039
X4.1535Y-4.252
M30
