%TF.GenerationSoftware,KiCad,Pcbnew,8.0.8*%
%TF.CreationDate,2025-07-13T21:22:02+01:00*%
%TF.ProjectId,FlightPad,466c6967-6874-4506-9164-2e6b69636164,rev?*%
%TF.SameCoordinates,Original*%
%TF.FileFunction,Soldermask,Top*%
%TF.FilePolarity,Negative*%
%FSLAX46Y46*%
G04 Gerber Fmt 4.6, Leading zero omitted, Abs format (unit mm)*
G04 Created by KiCad (PCBNEW 8.0.8) date 2025-07-13 21:22:02*
%MOMM*%
%LPD*%
G01*
G04 APERTURE LIST*
G04 Aperture macros list*
%AMRoundRect*
0 Rectangle with rounded corners*
0 $1 Rounding radius*
0 $2 $3 $4 $5 $6 $7 $8 $9 X,Y pos of 4 corners*
0 Add a 4 corners polygon primitive as box body*
4,1,4,$2,$3,$4,$5,$6,$7,$8,$9,$2,$3,0*
0 Add four circle primitives for the rounded corners*
1,1,$1+$1,$2,$3*
1,1,$1+$1,$4,$5*
1,1,$1+$1,$6,$7*
1,1,$1+$1,$8,$9*
0 Add four rect primitives between the rounded corners*
20,1,$1+$1,$2,$3,$4,$5,0*
20,1,$1+$1,$4,$5,$6,$7,0*
20,1,$1+$1,$6,$7,$8,$9,0*
20,1,$1+$1,$8,$9,$2,$3,0*%
G04 Aperture macros list end*
%ADD10C,1.700000*%
%ADD11C,4.000000*%
%ADD12C,2.200000*%
%ADD13R,1.700000X1.700000*%
%ADD14O,1.700000X1.700000*%
%ADD15RoundRect,0.152400X1.063600X0.609600X-1.063600X0.609600X-1.063600X-0.609600X1.063600X-0.609600X0*%
%ADD16C,1.524000*%
%ADD17RoundRect,0.152400X-1.063600X-0.609600X1.063600X-0.609600X1.063600X0.609600X-1.063600X0.609600X0*%
%ADD18O,1.524800X2.845600*%
G04 APERTURE END LIST*
D10*
%TO.C,SW4*%
X100420000Y-70000000D03*
D11*
X105500000Y-70000000D03*
D10*
X110580000Y-70000000D03*
D12*
X108040000Y-64920000D03*
X101690000Y-67460000D03*
%TD*%
D10*
%TO.C,SW5*%
X62420000Y-89000000D03*
D11*
X67500000Y-89000000D03*
D10*
X72580000Y-89000000D03*
D12*
X70040000Y-83920000D03*
X63690000Y-86460000D03*
%TD*%
D10*
%TO.C,SW7*%
X100420000Y-108000000D03*
D11*
X105500000Y-108000000D03*
D10*
X110580000Y-108000000D03*
D12*
X108040000Y-102920000D03*
X101690000Y-105460000D03*
%TD*%
D10*
%TO.C,SW2*%
X62340000Y-70000000D03*
D11*
X67420000Y-70000000D03*
D10*
X72500000Y-70000000D03*
D12*
X69960000Y-64920000D03*
X63610000Y-67460000D03*
%TD*%
D10*
%TO.C,SW10*%
X100420000Y-89000000D03*
D11*
X105500000Y-89000000D03*
D10*
X110580000Y-89000000D03*
D12*
X108040000Y-83920000D03*
X101690000Y-86460000D03*
%TD*%
D10*
%TO.C,SW3*%
X81340000Y-70000000D03*
D11*
X86420000Y-70000000D03*
D10*
X91500000Y-70000000D03*
D12*
X88960000Y-64920000D03*
X82610000Y-67460000D03*
%TD*%
D13*
%TO.C,J1*%
X57385000Y-52695000D03*
D14*
X57385000Y-50155000D03*
X57385000Y-47615000D03*
X57385000Y-45075000D03*
%TD*%
D10*
%TO.C,SW8*%
X62340000Y-108000000D03*
D11*
X67420000Y-108000000D03*
D10*
X72500000Y-108000000D03*
D12*
X69960000Y-102920000D03*
X63610000Y-105460000D03*
%TD*%
D10*
%TO.C,SW9*%
X81420000Y-108000000D03*
D11*
X86500000Y-108000000D03*
D10*
X91580000Y-108000000D03*
D12*
X89040000Y-102920000D03*
X82690000Y-105460000D03*
%TD*%
D15*
%TO.C,U1*%
X99590000Y-40260000D03*
D16*
X100425000Y-40260000D03*
D15*
X99590000Y-42800000D03*
D16*
X100425000Y-42800000D03*
D15*
X99590000Y-45340000D03*
D16*
X100425000Y-45340000D03*
D15*
X99590000Y-47880000D03*
D16*
X100425000Y-47880000D03*
D15*
X99590000Y-50420000D03*
D16*
X100425000Y-50420000D03*
D15*
X99590000Y-52960000D03*
D16*
X100425000Y-52960000D03*
D15*
X99590000Y-55500000D03*
D16*
X100425000Y-55500000D03*
X115665000Y-55500000D03*
D17*
X116500000Y-55500000D03*
D16*
X115665000Y-52960000D03*
D17*
X116500000Y-52960000D03*
D16*
X115665000Y-50420000D03*
D17*
X116500000Y-50420000D03*
D16*
X115665000Y-47880000D03*
D17*
X116500000Y-47880000D03*
D16*
X115665000Y-45340000D03*
D17*
X116500000Y-45340000D03*
D16*
X115665000Y-42800000D03*
D17*
X116500000Y-42800000D03*
D16*
X115665000Y-40260000D03*
D17*
X116500000Y-40260000D03*
%TD*%
D10*
%TO.C,SW6*%
X81420000Y-89000000D03*
D11*
X86500000Y-89000000D03*
D10*
X91580000Y-89000000D03*
D12*
X89040000Y-83920000D03*
X82690000Y-86460000D03*
%TD*%
D18*
%TO.C,D8*%
X77000000Y-104420000D03*
X77000000Y-114580000D03*
%TD*%
%TO.C,D7*%
X96000000Y-104420000D03*
X96000000Y-114580000D03*
%TD*%
%TO.C,D9*%
X58000000Y-104420000D03*
X58000000Y-114580000D03*
%TD*%
%TO.C,D3*%
X96000000Y-65920000D03*
X96000000Y-76080000D03*
%TD*%
%TO.C,D6*%
X58000000Y-84920000D03*
X58000000Y-95080000D03*
%TD*%
%TO.C,D2*%
X77000000Y-65920000D03*
X77000000Y-76080000D03*
%TD*%
%TO.C,D4*%
X96000000Y-84920000D03*
X96000000Y-95080000D03*
%TD*%
%TO.C,D5*%
X77000000Y-84920000D03*
X77000000Y-95080000D03*
%TD*%
%TO.C,D1*%
X58000000Y-65920000D03*
X58000000Y-76080000D03*
%TD*%
M02*
